<svg xmlns="http://www.w3.org/2000/svg" xmlns:xlink="http://www.w3.org/1999/xlink" version="1.1" class="marks" width="1520" height="708" viewBox="0 0 1520 708"><rect width="1520" height="708" fill="white"/><g fill="none" stroke-miterlimit="10" transform="translate(250,102)"><g class="mark-group role-frame root" role="graphics-object" aria-roledescription="group mark container"><g transform="translate(0,0)"><path class="background" aria-hidden="true" d="M0,0h0v0h0Z"/><g><g class="mark-group role-scope concat_0_group" role="graphics-object" aria-roledescription="group mark container"><g transform="translate(0,0)"><path class="background" aria-hidden="true" d="M0,0h0v0h0Z"/><g><g class="mark-group role-scope concat_0_concat_0_group" role="graphics-object" aria-roledescription="group mark container"><g transform="translate(0,0)"><path class="background" aria-hidden="true" d="M0,0h300v150h-300Z" stroke="#ddd" stroke-opacity="0" stroke-width="1.5"/><g><g class="mark-text role-mark concat_0_concat_0_marks" role="graphics-object" aria-roledescription="text mark container"><text aria-label="Metric: Level; Value: 21" role="graphics-symbol" aria-roledescription="text mark" text-anchor="middle" transform="translate(150,74)" font-family="sans-serif" font-size="80px" font-weight="bold" fill="#141331">21</text></g><g class="mark-group role-title"><g transform="translate(150,-24)"><path class="background" aria-hidden="true" d="M0,0h0v0h0Z" pointer-events="none"/><g><g class="mark-text role-title-text" role="graphics-symbol" aria-roledescription="title" aria-label="Title text 'Level'" pointer-events="none"><text text-anchor="middle" transform="translate(0,16)" font-family="sans-serif" font-size="20px" font-weight="bold" fill="#000" opacity="1">Level</text></g></g><path class="foreground" aria-hidden="true" d="" pointer-events="none" display="none"/></g></g></g><path class="foreground" aria-hidden="true" d="" display="none"/></g></g><g class="mark-group role-scope concat_0_concat_1_group" role="graphics-object" aria-roledescription="group mark container"><g transform="translate(0,194)"><path class="background" aria-hidden="true" d="M0,0h300v150h-300Z" stroke="#ddd" stroke-opacity="0" stroke-width="1.5"/><g><g class="mark-text role-mark concat_0_concat_1_marks" role="graphics-object" aria-roledescription="text mark container"><text aria-label="Metric: Played; Value: 50" role="graphics-symbol" aria-roledescription="text mark" text-anchor="middle" transform="translate(150,74)" font-family="sans-serif" font-size="80px" font-weight="bold" fill="#141331">50</text></g><g class="mark-group role-title"><g transform="translate(150,-24)"><path class="background" aria-hidden="true" d="M0,0h0v0h0Z" pointer-events="none"/><g><g class="mark-text role-title-text" role="graphics-symbol" aria-roledescription="title" aria-label="Title text 'Played'" pointer-events="none"><text text-anchor="middle" transform="translate(0,16)" font-family="sans-serif" font-size="20px" font-weight="bold" fill="#000" opacity="1">Played</text></g></g><path class="foreground" aria-hidden="true" d="" pointer-events="none" display="none"/></g></g></g><path class="foreground" aria-hidden="true" d="" display="none"/></g></g><g class="mark-group role-title"><g transform="translate(150,-58)"><path class="background" aria-hidden="true" d="M0,0h0v0h0Z" pointer-events="none"/><g><g class="mark-text role-title-text" role="graphics-symbol" aria-roledescription="title" aria-label="Title text 'Player Stats'" pointer-events="none"><text text-anchor="middle" transform="translate(0,24)" font-family="sans-serif" font-size="30px" font-weight="bold" fill="#000" opacity="1">Player Stats</text></g></g><path class="foreground" aria-hidden="true" d="" pointer-events="none" display="none"/></g></g></g><path class="foreground" aria-hidden="true" d="" display="none"/></g></g><g class="mark-group role-scope concat_1_group" role="graphics-object" aria-roledescription="group mark container"><g transform="translate(320,0)"><path class="background" aria-hidden="true" d="M0,0h700v400h-700Z"/><g><g class="mark-arc role-mark concat_1_marks" role="graphics-object" aria-roledescription="arc mark container"><path aria-label="playtime_percentage: 57.7; name: Skyrim; Game: Skyrim; Time (Hrs): 845.3; Playtime (%): 57.70" role="graphics-symbol" aria-roledescription="arc mark" transform="translate(350,200)" d="M-172.848,-100.616A200,200,0,1,0,199.812,8.668L0,0Z" fill="#00008B" stroke="black" stroke-width="1"/><path aria-label="playtime_percentage: 9.53; name: Batman: Arkham Knight; Game: Batman: Arkham Knight; Time (Hrs): 139.7; Playtime (%): 9.53" role="graphics-symbol" aria-roledescription="arc mark" transform="translate(350,200)" d="M112.728,-165.204A200,200,0,0,0,0,-200L0,0Z" fill="#32CD32" stroke="black" stroke-width="1"/><path aria-label="playtime_percentage: 7.1; name: Cyberpunk 2077; Game: Cyberpunk 2077; Time (Hrs): 104.0; Playtime (%): 7.10" role="graphics-symbol" aria-roledescription="arc mark" transform="translate(350,200)" d="M172.974,-100.399A200,200,0,0,0,112.728,-165.204L0,0Z" fill="#00CED1" stroke="black" stroke-width="1"/><path aria-label="playtime_percentage: 6.53; name: LOTR Online; Game: LOTR Online; Time (Hrs): 95.7; Playtime (%): 6.53" role="graphics-symbol" aria-roledescription="arc mark" transform="translate(350,200)" d="M198.665,-23.071A200,200,0,0,0,172.974,-100.399L0,0Z" fill="#A8D7E7" stroke="black" stroke-width="1"/><path aria-label="playtime_percentage: 4.52; name: Telltale: Batman; Game: Telltale: Batman; Time (Hrs): 66.2; Playtime (%): 4.52" role="graphics-symbol" aria-roledescription="arc mark" transform="translate(350,200)" d="M-73.859,-185.863A200,200,0,0,0,-122.978,-157.722L0,0Z" fill="#808080" stroke="black" stroke-width="1"/><path aria-label="playtime_percentage: 3.38; name: Stardew Valley; Game: Stardew Valley; Time (Hrs): 49.5; Playtime (%): 3.38" role="graphics-symbol" aria-roledescription="arc mark" transform="translate(350,200)" d="M-122.978,-157.722A200,200,0,0,0,-153.46,-128.258L0,0Z" fill="#FF4500" stroke="black" stroke-width="1"/><path aria-label="playtime_percentage: 3.25; name: Telltale: Game of Thrones; Game: Telltale: Game of Thrones; Time (Hrs): 47.7; Playtime (%): 3.25" role="graphics-symbol" aria-roledescription="arc mark" transform="translate(350,200)" d="M-34.633,-196.978A200,200,0,0,0,-73.859,-185.863L0,0Z" fill="#0000FF" stroke="black" stroke-width="1"/><path aria-label="playtime_percentage: 2.77; name: Telltale: The Walking Dead; Game: Telltale: The Walking Dead; Time (Hrs): 40.5; Playtime (%): 2.77" role="graphics-symbol" aria-roledescription="arc mark" transform="translate(350,200)" d="M0,-200A200,200,0,0,0,-34.633,-196.978L0,0Z" fill="#3D3A38" stroke="black" stroke-width="1"/><path aria-label="playtime_percentage: 2.69; name: SoS: A Wonderful Life; Game: SoS: A Wonderful Life; Time (Hrs): 39.4; Playtime (%): 2.69" role="graphics-symbol" aria-roledescription="arc mark" transform="translate(350,200)" d="M-153.46,-128.258A200,200,0,0,0,-172.848,-100.616L0,0Z" fill="#800080" stroke="black" stroke-width="1"/><path aria-label="playtime_percentage: 2.53; name: Shadow of Mordor; Game: Shadow of Mordor; Time (Hrs): 37.0; Playtime (%): 2.53" role="graphics-symbol" aria-roledescription="arc mark" transform="translate(350,200)" d="M199.812,8.668A200,200,0,0,0,198.665,-23.071L0,0Z" fill="#FFA500" stroke="black" stroke-width="1"/></g><g class="mark-group role-title"><g transform="translate(350,-44)"><path class="background" aria-hidden="true" d="M0,0h0v0h0Z" pointer-events="none"/><g><g class="mark-text role-title-text" role="graphics-symbol" aria-roledescription="title" aria-label="Title text 'Top Games'" pointer-events="none"><text text-anchor="middle" transform="translate(0,16)" font-family="sans-serif" font-size="20px" font-weight="bold" fill="#000" opacity="1">Top Games</text></g><g class="mark-text role-title-subtitle" role="graphics-symbol" aria-roledescription="subtitle" aria-label="Subtitle text 'Total Playtime: 1465.0 Hrs'" pointer-events="none"><text text-anchor="middle" transform="translate(0,36)" font-family="sans-serif" font-size="16px" fill="#000" opacity="1">Total Playtime: 1465.0 Hrs</text></g></g><path class="foreground" aria-hidden="true" d="" pointer-events="none" display="none"/></g></g></g><path class="foreground" aria-hidden="true" d="" display="none"/></g></g><g class="mark-group role-legend" role="graphics-symbol" aria-roledescription="legend" aria-label="Symbol legend for fill color with 10 values: Skyrim, Batman: Arkham Knight, Cyberpunk 2077, LOTR Online, Telltale: Batman, ending with Shadow of Mordor"><g transform="translate(0,419)"><path class="background" aria-hidden="true" d="M0,0h1014v187h-1014Z" pointer-events="none"/><g><g class="mark-group role-legend-entry"><g transform="translate(75,75)"><path class="background" aria-hidden="true" d="M0,0h0v0h0Z" pointer-events="none"/><g><g class="mark-group role-scope" role="graphics-object" aria-roledescription="group mark container"><g transform="translate(0,0.25)"><path class="background" aria-hidden="true" d="M0,0h81.95703125v12.5h-81.95703125Z" pointer-events="none" opacity="1"/><g><g class="mark-symbol role-legend-symbol" pointer-events="none"><path transform="translate(6,6)" d="M5,0A5,5,0,1,1,-5,0A5,5,0,1,1,5,0" fill="#00008B" stroke="black" stroke-width="1.5" opacity="1"/></g><g class="mark-text role-legend-label" pointer-events="none"><text text-anchor="start" transform="translate(16,9)" font-family="sans-serif" font-size="10px" fill="#000" opacity="1">Skyrim</text></g></g><path class="foreground" aria-hidden="true" d="" pointer-events="none" display="none"/></g><g transform="translate(158,0.25)"><path class="background" aria-hidden="true" d="M0,0h130.31640625v12.5h-130.31640625Z" pointer-events="none" opacity="1"/><g><g class="mark-symbol role-legend-symbol" pointer-events="none"><path transform="translate(6,6)" d="M5,0A5,5,0,1,1,-5,0A5,5,0,1,1,5,0" fill="#32CD32" stroke="black" stroke-width="1.5" opacity="1"/></g><g class="mark-text role-legend-label" pointer-events="none"><text text-anchor="start" transform="translate(16,9)" font-family="sans-serif" font-size="10px" fill="#000" opacity="1">Batman: Arkham Knight</text></g></g><path class="foreground" aria-hidden="true" d="" pointer-events="none" display="none"/></g><g transform="translate(365,0.25)"><path class="background" aria-hidden="true" d="M0,0h134.3935546875v12.5h-134.3935546875Z" pointer-events="none" opacity="1"/><g><g class="mark-symbol role-legend-symbol" pointer-events="none"><path transform="translate(6,6)" d="M5,0A5,5,0,1,1,-5,0A5,5,0,1,1,5,0" fill="#00CED1" stroke="black" stroke-width="1.5" opacity="1"/></g><g class="mark-text role-legend-label" pointer-events="none"><text text-anchor="start" transform="translate(16,9)" font-family="sans-serif" font-size="10px" fill="#000" opacity="1">Cyberpunk 2077</text></g></g><path class="foreground" aria-hidden="true" d="" pointer-events="none" display="none"/></g><g transform="translate(576,0.25)"><path class="background" aria-hidden="true" d="M0,0h113.099609375v12.5h-113.099609375Z" pointer-events="none" opacity="1"/><g><g class="mark-symbol role-legend-symbol" pointer-events="none"><path transform="translate(6,6)" d="M5,0A5,5,0,1,1,-5,0A5,5,0,1,1,5,0" fill="#A8D7E7" stroke="black" stroke-width="1.5" opacity="1"/></g><g class="mark-text role-legend-label" pointer-events="none"><text text-anchor="start" transform="translate(16,9)" font-family="sans-serif" font-size="10px" fill="#000" opacity="1">LOTR Online</text></g></g><path class="foreground" aria-hidden="true" d="" pointer-events="none" display="none"/></g><g transform="translate(766,0.25)"><path class="background" aria-hidden="true" d="M0,0h97.708984375v12.5h-97.708984375Z" pointer-events="none" opacity="1"/><g><g class="mark-symbol role-legend-symbol" pointer-events="none"><path transform="translate(6,6)" d="M5,0A5,5,0,1,1,-5,0A5,5,0,1,1,5,0" fill="#808080" stroke="black" stroke-width="1.5" opacity="1"/></g><g class="mark-text role-legend-label" pointer-events="none"><text text-anchor="start" transform="translate(16,9)" font-family="sans-serif" font-size="10px" fill="#000" opacity="1">Telltale: Batman</text></g></g><path class="foreground" aria-hidden="true" d="" pointer-events="none" display="none"/></g><g transform="translate(0,24)"><path class="background" aria-hidden="true" d="M0,0h81.95703125v12.5h-81.95703125Z" pointer-events="none" opacity="1"/><g><g class="mark-symbol role-legend-symbol" pointer-events="none"><path transform="translate(6,6)" d="M5,0A5,5,0,1,1,-5,0A5,5,0,1,1,5,0" fill="#FF4500" stroke="black" stroke-width="1.5" opacity="1"/></g><g class="mark-text role-legend-label" pointer-events="none"><text text-anchor="start" transform="translate(16,9)" font-family="sans-serif" font-size="10px" fill="#000" opacity="1">Stardew Valley</text></g></g><path class="foreground" aria-hidden="true" d="" pointer-events="none" display="none"/></g><g transform="translate(158,24)"><path class="background" aria-hidden="true" d="M0,0h130.31640625v12.5h-130.31640625Z" pointer-events="none" opacity="1"/><g><g class="mark-symbol role-legend-symbol" pointer-events="none"><path transform="translate(6,6)" d="M5,0A5,5,0,1,1,-5,0A5,5,0,1,1,5,0" fill="#0000FF" stroke="black" stroke-width="1.5" opacity="1"/></g><g class="mark-text role-legend-label" pointer-events="none"><text text-anchor="start" transform="translate(16,9)" font-family="sans-serif" font-size="10px" fill="#000" opacity="1">Telltale: Game of Thrones</text></g></g><path class="foreground" aria-hidden="true" d="" pointer-events="none" display="none"/></g><g transform="translate(365,24)"><path class="background" aria-hidden="true" d="M0,0h134.3935546875v12.5h-134.3935546875Z" pointer-events="none" opacity="1"/><g><g class="mark-symbol role-legend-symbol" pointer-events="none"><path transform="translate(6,6)" d="M5,0A5,5,0,1,1,-5,0A5,5,0,1,1,5,0" fill="#3D3A38" stroke="black" stroke-width="1.5" opacity="1"/></g><g class="mark-text role-legend-label" pointer-events="none"><text text-anchor="start" transform="translate(16,9)" font-family="sans-serif" font-size="10px" fill="#000" opacity="1">Telltale: The Walking Dead</text></g></g><path class="foreground" aria-hidden="true" d="" pointer-events="none" display="none"/></g><g transform="translate(576,24)"><path class="background" aria-hidden="true" d="M0,0h113.099609375v12.5h-113.099609375Z" pointer-events="none" opacity="1"/><g><g class="mark-symbol role-legend-symbol" pointer-events="none"><path transform="translate(6,6)" d="M5,0A5,5,0,1,1,-5,0A5,5,0,1,1,5,0" fill="#800080" stroke="black" stroke-width="1.5" opacity="1"/></g><g class="mark-text role-legend-label" pointer-events="none"><text text-anchor="start" transform="translate(16,9)" font-family="sans-serif" font-size="10px" fill="#000" opacity="1">SoS: A Wonderful Life</text></g></g><path class="foreground" aria-hidden="true" d="" pointer-events="none" display="none"/></g><g transform="translate(766,24)"><path class="background" aria-hidden="true" d="M0,0h97.708984375v12.5h-97.708984375Z" pointer-events="none" opacity="1"/><g><g class="mark-symbol role-legend-symbol" pointer-events="none"><path transform="translate(6,6)" d="M5,0A5,5,0,1,1,-5,0A5,5,0,1,1,5,0" fill="#FFA500" stroke="black" stroke-width="1.5" opacity="1"/></g><g class="mark-text role-legend-label" pointer-events="none"><text text-anchor="start" transform="translate(16,9)" font-family="sans-serif" font-size="10px" fill="#000" opacity="1">Shadow of Mordor</text></g></g><path class="foreground" aria-hidden="true" d="" pointer-events="none" display="none"/></g></g></g><path class="foreground" aria-hidden="true" d="" pointer-events="none" display="none"/></g></g></g><path class="foreground" aria-hidden="true" d="" pointer-events="none" display="none"/></g></g><g class="mark-group role-title"><g transform="translate(510,-102)"><path class="background" aria-hidden="true" d="M0,0h0v0h0Z" pointer-events="none"/><g><g class="mark-text role-title-text" role="graphics-symbol" aria-roledescription="title" aria-label="Title text 'Dipto9999's Steam Dashboard'" pointer-events="none"><text text-anchor="middle" transform="translate(0,32)" font-family="sans-serif" font-size="40px" font-weight="bold" fill="#000" opacity="1">Dipto9999's Steam Dashboard</text></g></g><path class="foreground" aria-hidden="true" d="" pointer-events="none" display="none"/></g></g></g><path class="foreground" aria-hidden="true" d="" display="none"/></g></g></g></svg>