<svg xmlns="http://www.w3.org/2000/svg" xmlns:xlink="http://www.w3.org/1999/xlink" version="1.1" class="marks" width="1624" height="732" viewBox="0 0 1624 732"><rect width="1624" height="732" fill="white"/><g fill="none" stroke-miterlimit="10" transform="translate(250,102)"><g class="mark-group role-frame root" role="graphics-object" aria-roledescription="group mark container"><g transform="translate(0,0)"><path class="background" aria-hidden="true" d="M0,0h0v0h0Z"/><g><g class="mark-group role-scope concat_0_group" role="graphics-object" aria-roledescription="group mark container"><g transform="translate(0,0)"><path class="background" aria-hidden="true" d="M0,0h0v0h0Z"/><g><g class="mark-group role-scope concat_0_concat_0_group" role="graphics-object" aria-roledescription="group mark container"><g transform="translate(0,0)"><path class="background" aria-hidden="true" d="M0,0h300v150h-300Z" stroke="#ddd" stroke-opacity="0" stroke-width="1.5"/><g><g class="mark-text role-mark concat_0_concat_0_marks" role="graphics-object" aria-roledescription="text mark container"><text aria-label="Metric: Level; Value: 21" role="graphics-symbol" aria-roledescription="text mark" text-anchor="middle" transform="translate(150,74)" font-family="sans-serif" font-size="80px" font-weight="bold" fill="#141331">21</text></g><g class="mark-group role-title"><g transform="translate(150,-24)"><path class="background" aria-hidden="true" d="M0,0h0v0h0Z" pointer-events="none"/><g><g class="mark-text role-title-text" role="graphics-symbol" aria-roledescription="title" aria-label="Title text 'Level'" pointer-events="none"><text text-anchor="middle" transform="translate(0,16)" font-family="sans-serif" font-size="20px" font-weight="bold" fill="#000" opacity="1">Level</text></g></g><path class="foreground" aria-hidden="true" d="" pointer-events="none" display="none"/></g></g></g><path class="foreground" aria-hidden="true" d="" display="none"/></g></g><g class="mark-group role-scope concat_0_concat_1_group" role="graphics-object" aria-roledescription="group mark container"><g transform="translate(0,194)"><path class="background" aria-hidden="true" d="M0,0h300v150h-300Z" stroke="#ddd" stroke-opacity="0" stroke-width="1.5"/><g><g class="mark-text role-mark concat_0_concat_1_marks" role="graphics-object" aria-roledescription="text mark container"><text aria-label="Metric: Played; Value: 49" role="graphics-symbol" aria-roledescription="text mark" text-anchor="middle" transform="translate(150,74)" font-family="sans-serif" font-size="80px" font-weight="bold" fill="#141331">49</text></g><g class="mark-group role-title"><g transform="translate(150,-24)"><path class="background" aria-hidden="true" d="M0,0h0v0h0Z" pointer-events="none"/><g><g class="mark-text role-title-text" role="graphics-symbol" aria-roledescription="title" aria-label="Title text 'Played'" pointer-events="none"><text text-anchor="middle" transform="translate(0,16)" font-family="sans-serif" font-size="20px" font-weight="bold" fill="#000" opacity="1">Played</text></g></g><path class="foreground" aria-hidden="true" d="" pointer-events="none" display="none"/></g></g></g><path class="foreground" aria-hidden="true" d="" display="none"/></g></g><g class="mark-group role-title"><g transform="translate(150,-58)"><path class="background" aria-hidden="true" d="M0,0h0v0h0Z" pointer-events="none"/><g><g class="mark-text role-title-text" role="graphics-symbol" aria-roledescription="title" aria-label="Title text 'Player Stats'" pointer-events="none"><text text-anchor="middle" transform="translate(0,24)" font-family="sans-serif" font-size="30px" font-weight="bold" fill="#000" opacity="1">Player Stats</text></g></g><path class="foreground" aria-hidden="true" d="" pointer-events="none" display="none"/></g></g></g><path class="foreground" aria-hidden="true" d="" display="none"/></g></g><g class="mark-group role-scope concat_1_group" role="graphics-object" aria-roledescription="group mark container"><g transform="translate(320,0)"><path class="background" aria-hidden="true" d="M0,0h700v400h-700Z"/><g><g class="mark-arc role-mark concat_1_marks" role="graphics-object" aria-roledescription="arc mark container"><path aria-label="playtime_percentage: 56.97; name: Skyrim; Game: Skyrim; Time (Hrs): 845.3; Playtime (%): 56.97" role="graphics-symbol" aria-roledescription="arc mark" transform="translate(350,200)" d="M-178.268,-90.667A200,200,0,1,0,199.896,6.44L0,0Z" fill="#00008B" stroke="black" stroke-width="1"/><path aria-label="playtime_percentage: 6.51; name: Batman: Arkham Knight; Game: Batman: Arkham Knight; Time (Hrs): 96.6; Playtime (%): 6.51" role="graphics-symbol" aria-roledescription="arc mark" transform="translate(350,200)" d="M95.588,-175.679A200,200,0,0,0,17.822,-199.204L0,0Z" fill="#32CD32" stroke="black" stroke-width="1"/><path aria-label="playtime_percentage: 6.13; name: LOTR Online; Game: LOTR Online; Time (Hrs): 91.0; Playtime (%): 6.13" role="graphics-symbol" aria-roledescription="arc mark" transform="translate(350,200)" d="M193.94,-48.86A200,200,0,0,0,161.37,-118.151L0,0Z" fill="#00CED1" stroke="black" stroke-width="1"/><path aria-label="playtime_percentage: 4.46; name: Telltale: Batman; Game: Telltale: Batman; Time (Hrs): 66.2; Playtime (%): 4.46" role="graphics-symbol" aria-roledescription="arc mark" transform="translate(350,200)" d="M-114.599,-163.911A200,200,0,0,0,-155.467,-125.818L0,0Z" fill="#A8D7E7" stroke="black" stroke-width="1"/><path aria-label="playtime_percentage: 3.39; name: Cyberpunk 2077; Game: Cyberpunk 2077; Time (Hrs): 50.3; Playtime (%): 3.39" role="graphics-symbol" aria-roledescription="arc mark" transform="translate(350,200)" d="M150.282,-131.967A200,200,0,0,0,118.986,-160.755L0,0Z" fill="#808080" stroke="black" stroke-width="1"/><path aria-label="playtime_percentage: 3.34; name: Stardew Valley; Game: Stardew Valley; Time (Hrs): 49.5; Playtime (%): 3.34" role="graphics-symbol" aria-roledescription="arc mark" transform="translate(350,200)" d="M-155.467,-125.818A200,200,0,0,0,-178.268,-90.667L0,0Z" fill="#FF4500" stroke="black" stroke-width="1"/><path aria-label="playtime_percentage: 3.21; name: Telltale: Game of Thrones; Game: Telltale: Game of Thrones; Time (Hrs): 47.7; Playtime (%): 3.21" role="graphics-symbol" aria-roledescription="arc mark" transform="translate(350,200)" d="M-50.716,-193.463A200,200,0,0,0,-88.447,-179.38L0,0Z" fill="#0000FF" stroke="black" stroke-width="1"/><path aria-label="playtime_percentage: 2.73; name: Telltale: The Walking Dead; Game: Telltale: The Walking Dead; Time (Hrs): 40.5; Playtime (%): 2.73" role="graphics-symbol" aria-roledescription="arc mark" transform="translate(350,200)" d="M-16.946,-199.281A200,200,0,0,0,-50.716,-193.463L0,0Z" fill="#3D3A38" stroke="black" stroke-width="1"/><path aria-label="playtime_percentage: 2.5; name: Shadow of Mordor; Game: Shadow of Mordor; Time (Hrs): 37.0; Playtime (%): 2.50" role="graphics-symbol" aria-roledescription="arc mark" transform="translate(350,200)" d="M199.196,-17.916A200,200,0,0,0,193.94,-48.86L0,0Z" fill="#800080" stroke="black" stroke-width="1"/><path aria-label="playtime_percentage: 2.42; name: Telltale: Batman The Enemy Within; Game: Telltale: Batman The Enemy Within; Time (Hrs): 35.9; Playtime (%): 2.42" role="graphics-symbol" aria-roledescription="arc mark" transform="translate(350,200)" d="M-88.447,-179.38A200,200,0,0,0,-114.599,-163.911L0,0Z" fill="#FFA500" stroke="black" stroke-width="1"/><path aria-label="playtime_percentage: 2.21; name: Batman: Arkham Origins; Game: Batman: Arkham Origins; Time (Hrs): 32.8; Playtime (%): 2.21" role="graphics-symbol" aria-roledescription="arc mark" transform="translate(350,200)" d="M118.986,-160.755A200,200,0,0,0,95.588,-175.679L0,0Z" fill="#006400" stroke="black" stroke-width="1"/><path aria-label="playtime_percentage: 1.94; name: Shadow of the Tomb Raider; Game: Shadow of the Tomb Raider; Time (Hrs): 28.8; Playtime (%): 1.94" role="graphics-symbol" aria-roledescription="arc mark" transform="translate(350,200)" d="M199.896,6.44A200,200,0,0,0,199.196,-17.916L0,0Z" fill="#8B0000" stroke="black" stroke-width="1"/><path aria-label="playtime_percentage: 1.42; name: Batman: Arkham City; Game: Batman: Arkham City; Time (Hrs): 21.1; Playtime (%): 1.42" role="graphics-symbol" aria-roledescription="arc mark" transform="translate(350,200)" d="M17.822,-199.204A200,200,0,0,0,0,-200L0,0Z" fill="#FFD700" stroke="black" stroke-width="1"/><path aria-label="playtime_percentage: 1.41; name: DOOM; Game: DOOM; Time (Hrs): 20.9; Playtime (%): 1.41" role="graphics-symbol" aria-roledescription="arc mark" transform="translate(350,200)" d="M161.37,-118.151A200,200,0,0,0,150.282,-131.967L0,0Z" fill="#4682B4" stroke="black" stroke-width="1"/><path aria-label="playtime_percentage: 1.35; name: Trine 2; Game: Trine 2; Time (Hrs): 20.1; Playtime (%): 1.35" role="graphics-symbol" aria-roledescription="arc mark" transform="translate(350,200)" d="M0,-200A200,200,0,0,0,-16.946,-199.281L0,0Z" fill="#2E8B57" stroke="black" stroke-width="1"/></g><g class="mark-group role-title"><g transform="translate(350,-44)"><path class="background" aria-hidden="true" d="M0,0h0v0h0Z" pointer-events="none"/><g><g class="mark-text role-title-text" role="graphics-symbol" aria-roledescription="title" aria-label="Title text 'Top Games'" pointer-events="none"><text text-anchor="middle" transform="translate(0,16)" font-family="sans-serif" font-size="20px" font-weight="bold" fill="#000" opacity="1">Top Games</text></g><g class="mark-text role-title-subtitle" role="graphics-symbol" aria-roledescription="subtitle" aria-label="Subtitle text 'Total Playtime: 1483.7 Hrs'" pointer-events="none"><text text-anchor="middle" transform="translate(0,36)" font-family="sans-serif" font-size="16px" fill="#000" opacity="1">Total Playtime: 1483.7 Hrs</text></g></g><path class="foreground" aria-hidden="true" d="" pointer-events="none" display="none"/></g></g></g><path class="foreground" aria-hidden="true" d="" display="none"/></g></g><g class="mark-group role-legend" role="graphics-symbol" aria-roledescription="legend" aria-label="Symbol legend for fill color with 15 values: Skyrim, Batman: Arkham Knight, LOTR Online, Telltale: Batman, Cyberpunk 2077, ending with Trine 2"><g transform="translate(0,419)"><path class="background" aria-hidden="true" d="M0,0h1124v211h-1124Z" pointer-events="none"/><g><g class="mark-group role-legend-entry"><g transform="translate(75,75)"><path class="background" aria-hidden="true" d="M0,0h0v0h0Z" pointer-events="none"/><g><g class="mark-group role-scope" role="graphics-object" aria-roledescription="group mark container"><g transform="translate(0,0.25)"><path class="background" aria-hidden="true" d="M0,0h124.3740234375v12.5h-124.3740234375Z" pointer-events="none" opacity="1"/><g><g class="mark-symbol role-legend-symbol" pointer-events="none"><path transform="translate(6,6)" d="M5,0A5,5,0,1,1,-5,0A5,5,0,1,1,5,0" fill="#00008B" stroke="black" stroke-width="1.5" opacity="1"/></g><g class="mark-text role-legend-label" pointer-events="none"><text text-anchor="start" transform="translate(16,9)" font-family="sans-serif" font-size="10px" fill="#000" opacity="1">Skyrim</text></g></g><path class="foreground" aria-hidden="true" d="" pointer-events="none" display="none"/></g><g transform="translate(201,0.25)"><path class="background" aria-hidden="true" d="M0,0h139.22265625v12.5h-139.22265625Z" pointer-events="none" opacity="1"/><g><g class="mark-symbol role-legend-symbol" pointer-events="none"><path transform="translate(6,6)" d="M5,0A5,5,0,1,1,-5,0A5,5,0,1,1,5,0" fill="#32CD32" stroke="black" stroke-width="1.5" opacity="1"/></g><g class="mark-text role-legend-label" pointer-events="none"><text text-anchor="start" transform="translate(16,9)" font-family="sans-serif" font-size="10px" fill="#000" opacity="1">Batman: Arkham Knight</text></g></g><path class="foreground" aria-hidden="true" d="" pointer-events="none" display="none"/></g><g transform="translate(417,0.25)"><path class="background" aria-hidden="true" d="M0,0h134.3935546875v12.5h-134.3935546875Z" pointer-events="none" opacity="1"/><g><g class="mark-symbol role-legend-symbol" pointer-events="none"><path transform="translate(6,6)" d="M5,0A5,5,0,1,1,-5,0A5,5,0,1,1,5,0" fill="#00CED1" stroke="black" stroke-width="1.5" opacity="1"/></g><g class="mark-text role-legend-label" pointer-events="none"><text text-anchor="start" transform="translate(16,9)" font-family="sans-serif" font-size="10px" fill="#000" opacity="1">LOTR Online</text></g></g><path class="foreground" aria-hidden="true" d="" pointer-events="none" display="none"/></g><g transform="translate(628,0.25)"><path class="background" aria-hidden="true" d="M0,0h97.708984375v12.5h-97.708984375Z" pointer-events="none" opacity="1"/><g><g class="mark-symbol role-legend-symbol" pointer-events="none"><path transform="translate(6,6)" d="M5,0A5,5,0,1,1,-5,0A5,5,0,1,1,5,0" fill="#A8D7E7" stroke="black" stroke-width="1.5" opacity="1"/></g><g class="mark-text role-legend-label" pointer-events="none"><text text-anchor="start" transform="translate(16,9)" font-family="sans-serif" font-size="10px" fill="#000" opacity="1">Telltale: Batman</text></g></g><path class="foreground" aria-hidden="true" d="" pointer-events="none" display="none"/></g><g transform="translate(802,0.25)"><path class="background" aria-hidden="true" d="M0,0h171.439453125v12.5h-171.439453125Z" pointer-events="none" opacity="1"/><g><g class="mark-symbol role-legend-symbol" pointer-events="none"><path transform="translate(6,6)" d="M5,0A5,5,0,1,1,-5,0A5,5,0,1,1,5,0" fill="#808080" stroke="black" stroke-width="1.5" opacity="1"/></g><g class="mark-text role-legend-label" pointer-events="none"><text text-anchor="start" transform="translate(16,9)" font-family="sans-serif" font-size="10px" fill="#000" opacity="1">Cyberpunk 2077</text></g></g><path class="foreground" aria-hidden="true" d="" pointer-events="none" display="none"/></g><g transform="translate(0,24)"><path class="background" aria-hidden="true" d="M0,0h124.3740234375v12.5h-124.3740234375Z" pointer-events="none" opacity="1"/><g><g class="mark-symbol role-legend-symbol" pointer-events="none"><path transform="translate(6,6)" d="M5,0A5,5,0,1,1,-5,0A5,5,0,1,1,5,0" fill="#FF4500" stroke="black" stroke-width="1.5" opacity="1"/></g><g class="mark-text role-legend-label" pointer-events="none"><text text-anchor="start" transform="translate(16,9)" font-family="sans-serif" font-size="10px" fill="#000" opacity="1">Stardew Valley</text></g></g><path class="foreground" aria-hidden="true" d="" pointer-events="none" display="none"/></g><g transform="translate(201,24)"><path class="background" aria-hidden="true" d="M0,0h139.22265625v12.5h-139.22265625Z" pointer-events="none" opacity="1"/><g><g class="mark-symbol role-legend-symbol" pointer-events="none"><path transform="translate(6,6)" d="M5,0A5,5,0,1,1,-5,0A5,5,0,1,1,5,0" fill="#0000FF" stroke="black" stroke-width="1.5" opacity="1"/></g><g class="mark-text role-legend-label" pointer-events="none"><text text-anchor="start" transform="translate(16,9)" font-family="sans-serif" font-size="10px" fill="#000" opacity="1">Telltale: Game of Thrones</text></g></g><path class="foreground" aria-hidden="true" d="" pointer-events="none" display="none"/></g><g transform="translate(417,24)"><path class="background" aria-hidden="true" d="M0,0h134.3935546875v12.5h-134.3935546875Z" pointer-events="none" opacity="1"/><g><g class="mark-symbol role-legend-symbol" pointer-events="none"><path transform="translate(6,6)" d="M5,0A5,5,0,1,1,-5,0A5,5,0,1,1,5,0" fill="#3D3A38" stroke="black" stroke-width="1.5" opacity="1"/></g><g class="mark-text role-legend-label" pointer-events="none"><text text-anchor="start" transform="translate(16,9)" font-family="sans-serif" font-size="10px" fill="#000" opacity="1">Telltale: The Walking Dead</text></g></g><path class="foreground" aria-hidden="true" d="" pointer-events="none" display="none"/></g><g transform="translate(628,24)"><path class="background" aria-hidden="true" d="M0,0h97.708984375v12.5h-97.708984375Z" pointer-events="none" opacity="1"/><g><g class="mark-symbol role-legend-symbol" pointer-events="none"><path transform="translate(6,6)" d="M5,0A5,5,0,1,1,-5,0A5,5,0,1,1,5,0" fill="#800080" stroke="black" stroke-width="1.5" opacity="1"/></g><g class="mark-text role-legend-label" pointer-events="none"><text text-anchor="start" transform="translate(16,9)" font-family="sans-serif" font-size="10px" fill="#000" opacity="1">Shadow of Mordor</text></g></g><path class="foreground" aria-hidden="true" d="" pointer-events="none" display="none"/></g><g transform="translate(802,24)"><path class="background" aria-hidden="true" d="M0,0h171.439453125v12.5h-171.439453125Z" pointer-events="none" opacity="1"/><g><g class="mark-symbol role-legend-symbol" pointer-events="none"><path transform="translate(6,6)" d="M5,0A5,5,0,1,1,-5,0A5,5,0,1,1,5,0" fill="#FFA500" stroke="black" stroke-width="1.5" opacity="1"/></g><g class="mark-text role-legend-label" pointer-events="none"><text text-anchor="start" transform="translate(16,9)" font-family="sans-serif" font-size="10px" fill="#000" opacity="1">Telltale: Batman The Enemy Within</text></g></g><path class="foreground" aria-hidden="true" d="" pointer-events="none" display="none"/></g><g transform="translate(0,48)"><path class="background" aria-hidden="true" d="M0,0h124.3740234375v12.5h-124.3740234375Z" pointer-events="none" opacity="1"/><g><g class="mark-symbol role-legend-symbol" pointer-events="none"><path transform="translate(6,6)" d="M5,0A5,5,0,1,1,-5,0A5,5,0,1,1,5,0" fill="#006400" stroke="black" stroke-width="1.5" opacity="1"/></g><g class="mark-text role-legend-label" pointer-events="none"><text text-anchor="start" transform="translate(16,9)" font-family="sans-serif" font-size="10px" fill="#000" opacity="1">Batman: Arkham Origins</text></g></g><path class="foreground" aria-hidden="true" d="" pointer-events="none" display="none"/></g><g transform="translate(201,48)"><path class="background" aria-hidden="true" d="M0,0h139.22265625v12.5h-139.22265625Z" pointer-events="none" opacity="1"/><g><g class="mark-symbol role-legend-symbol" pointer-events="none"><path transform="translate(6,6)" d="M5,0A5,5,0,1,1,-5,0A5,5,0,1,1,5,0" fill="#8B0000" stroke="black" stroke-width="1.5" opacity="1"/></g><g class="mark-text role-legend-label" pointer-events="none"><text text-anchor="start" transform="translate(16,9)" font-family="sans-serif" font-size="10px" fill="#000" opacity="1">Shadow of the Tomb Raider</text></g></g><path class="foreground" aria-hidden="true" d="" pointer-events="none" display="none"/></g><g transform="translate(417,48)"><path class="background" aria-hidden="true" d="M0,0h134.3935546875v12.5h-134.3935546875Z" pointer-events="none" opacity="1"/><g><g class="mark-symbol role-legend-symbol" pointer-events="none"><path transform="translate(6,6)" d="M5,0A5,5,0,1,1,-5,0A5,5,0,1,1,5,0" fill="#FFD700" stroke="black" stroke-width="1.5" opacity="1"/></g><g class="mark-text role-legend-label" pointer-events="none"><text text-anchor="start" transform="translate(16,9)" font-family="sans-serif" font-size="10px" fill="#000" opacity="1">Batman: Arkham City</text></g></g><path class="foreground" aria-hidden="true" d="" pointer-events="none" display="none"/></g><g transform="translate(628,48)"><path class="background" aria-hidden="true" d="M0,0h97.708984375v12.5h-97.708984375Z" pointer-events="none" opacity="1"/><g><g class="mark-symbol role-legend-symbol" pointer-events="none"><path transform="translate(6,6)" d="M5,0A5,5,0,1,1,-5,0A5,5,0,1,1,5,0" fill="#4682B4" stroke="black" stroke-width="1.5" opacity="1"/></g><g class="mark-text role-legend-label" pointer-events="none"><text text-anchor="start" transform="translate(16,9)" font-family="sans-serif" font-size="10px" fill="#000" opacity="1">DOOM</text></g></g><path class="foreground" aria-hidden="true" d="" pointer-events="none" display="none"/></g><g transform="translate(802,48)"><path class="background" aria-hidden="true" d="M0,0h171.439453125v12.5h-171.439453125Z" pointer-events="none" opacity="1"/><g><g class="mark-symbol role-legend-symbol" pointer-events="none"><path transform="translate(6,6)" d="M5,0A5,5,0,1,1,-5,0A5,5,0,1,1,5,0" fill="#2E8B57" stroke="black" stroke-width="1.5" opacity="1"/></g><g class="mark-text role-legend-label" pointer-events="none"><text text-anchor="start" transform="translate(16,9)" font-family="sans-serif" font-size="10px" fill="#000" opacity="1">Trine 2</text></g></g><path class="foreground" aria-hidden="true" d="" pointer-events="none" display="none"/></g></g></g><path class="foreground" aria-hidden="true" d="" pointer-events="none" display="none"/></g></g></g><path class="foreground" aria-hidden="true" d="" pointer-events="none" display="none"/></g></g><g class="mark-group role-title"><g transform="translate(562,-102)"><path class="background" aria-hidden="true" d="M0,0h0v0h0Z" pointer-events="none"/><g><g class="mark-text role-title-text" role="graphics-symbol" aria-roledescription="title" aria-label="Title text 'Dipto9999's Steam Dashboard'" pointer-events="none"><text text-anchor="middle" transform="translate(0,32)" font-family="sans-serif" font-size="40px" font-weight="bold" fill="#000" opacity="1">Dipto9999's Steam Dashboard</text></g></g><path class="foreground" aria-hidden="true" d="" pointer-events="none" display="none"/></g></g></g><path class="foreground" aria-hidden="true" d="" display="none"/></g></g></g></svg>