<svg xmlns="http://www.w3.org/2000/svg" xmlns:xlink="http://www.w3.org/1999/xlink" version="1.1" class="marks" width="1773" height="732" viewBox="0 0 1773 732"><rect width="1773" height="732" fill="white"/><g fill="none" stroke-miterlimit="10" transform="translate(250,102)"><g class="mark-group role-frame root" role="graphics-object" aria-roledescription="group mark container"><g transform="translate(0,0)"><path class="background" aria-hidden="true" d="M0,0h0v0h0Z"/><g><g class="mark-group role-scope concat_0_group" role="graphics-object" aria-roledescription="group mark container"><g transform="translate(0,0)"><path class="background" aria-hidden="true" d="M0,0h0v0h0Z"/><g><g class="mark-group role-scope concat_0_concat_0_group" role="graphics-object" aria-roledescription="group mark container"><g transform="translate(0,0)"><path class="background" aria-hidden="true" d="M0,0h300v150h-300Z" stroke="#ddd" stroke-opacity="0" stroke-width="1.5"/><g><g class="mark-text role-mark concat_0_concat_0_marks" role="graphics-object" aria-roledescription="text mark container"><text aria-label="Metric: Level; Value: 18" role="graphics-symbol" aria-roledescription="text mark" text-anchor="middle" transform="translate(150,74)" font-family="sans-serif" font-size="80px" font-weight="bold" fill="#141331">18</text></g><g class="mark-group role-title"><g transform="translate(150,-24)"><path class="background" aria-hidden="true" d="M0,0h0v0h0Z" pointer-events="none"/><g><g class="mark-text role-title-text" role="graphics-symbol" aria-roledescription="title" aria-label="Title text 'Level'" pointer-events="none"><text text-anchor="middle" transform="translate(0,16)" font-family="sans-serif" font-size="20px" font-weight="bold" fill="#000" opacity="1">Level</text></g></g><path class="foreground" aria-hidden="true" d="" pointer-events="none" display="none"/></g></g></g><path class="foreground" aria-hidden="true" d="" display="none" stroke="#ddd" stroke-opacity="0" stroke-width="1.5"/></g></g><g class="mark-group role-scope concat_0_concat_1_group" role="graphics-object" aria-roledescription="group mark container"><g transform="translate(0,194)"><path class="background" aria-hidden="true" d="M0,0h300v150h-300Z" stroke="#ddd" stroke-opacity="0" stroke-width="1.5"/><g><g class="mark-text role-mark concat_0_concat_1_marks" role="graphics-object" aria-roledescription="text mark container"><text aria-label="Metric: Played; Value: 43" role="graphics-symbol" aria-roledescription="text mark" text-anchor="middle" transform="translate(150,74)" font-family="sans-serif" font-size="80px" font-weight="bold" fill="#141331">43</text></g><g class="mark-group role-title"><g transform="translate(150,-24)"><path class="background" aria-hidden="true" d="M0,0h0v0h0Z" pointer-events="none"/><g><g class="mark-text role-title-text" role="graphics-symbol" aria-roledescription="title" aria-label="Title text 'Played'" pointer-events="none"><text text-anchor="middle" transform="translate(0,16)" font-family="sans-serif" font-size="20px" font-weight="bold" fill="#000" opacity="1">Played</text></g></g><path class="foreground" aria-hidden="true" d="" pointer-events="none" display="none"/></g></g></g><path class="foreground" aria-hidden="true" d="" display="none" stroke="#ddd" stroke-opacity="0" stroke-width="1.5"/></g></g><g class="mark-group role-title"><g transform="translate(150,-58)"><path class="background" aria-hidden="true" d="M0,0h0v0h0Z" pointer-events="none"/><g><g class="mark-text role-title-text" role="graphics-symbol" aria-roledescription="title" aria-label="Title text 'Player Stats'" pointer-events="none"><text text-anchor="middle" transform="translate(0,24)" font-family="sans-serif" font-size="30px" font-weight="bold" fill="#000" opacity="1">Player Stats</text></g></g><path class="foreground" aria-hidden="true" d="" pointer-events="none" display="none"/></g></g></g><path class="foreground" aria-hidden="true" d="" display="none"/></g></g><g class="mark-group role-scope concat_1_group" role="graphics-object" aria-roledescription="group mark container"><g transform="translate(320,0)"><path class="background" aria-hidden="true" d="M0,0h700v400h-700Z"/><g><g class="mark-arc role-mark concat_1_marks" role="graphics-object" aria-roledescription="arc mark container"><path aria-label="playtime_percentage: 59.73; name: The Elder Scrolls V: Skyrim; Game: The Elder Scrolls V: Skyrim; Time (Hrs): 845.3; Playtime (%): 59.73" role="graphics-symbol" aria-roledescription="arc mark" transform="translate(350,200)" d="M-144.312,-138.47A200,200,0,1,0,197.64,30.632L0,0Z" fill="#00008B" stroke="black" stroke-width="1"/><path aria-label="playtime_percentage: 6.82; name: Batman™: Arkham Knight; Game: Batman™: Arkham Knight; Time (Hrs): 96.5; Playtime (%): 6.82" role="graphics-symbol" aria-roledescription="arc mark" transform="translate(350,200)" d="M172.01,-102.042A200,200,0,0,0,114.064,-164.285L0,0Z" fill="#32CD32" stroke="black" stroke-width="1"/><path aria-label="playtime_percentage: 6.43; name: The Lord of the Rings Online™; Game: The Lord of the Rings Online™; Time (Hrs): 91.0; Playtime (%): 6.43" role="graphics-symbol" aria-roledescription="arc mark" transform="translate(350,200)" d="M-78.267,-184.05A200,200,0,0,0,-144.312,-138.47L0,0Z" fill="#00CED1" stroke="black" stroke-width="1"/><path aria-label="playtime_percentage: 4.68; name: Batman - The Telltale Series; Game: Batman - The Telltale Series; Time (Hrs): 66.2; Playtime (%): 4.68" role="graphics-symbol" aria-roledescription="arc mark" transform="translate(350,200)" d="M57.961,-191.417A200,200,0,0,0,0,-200L0,0Z" fill="#A8D7E7" stroke="black" stroke-width="1"/><path aria-label="playtime_percentage: 3.5; name: Stardew Valley; Game: Stardew Valley; Time (Hrs): 49.5; Playtime (%): 3.50" role="graphics-symbol" aria-roledescription="arc mark" transform="translate(350,200)" d="M197.64,30.632A200,200,0,0,0,199.563,-13.215L0,0Z" fill="#808080" stroke="black" stroke-width="1"/><path aria-label="playtime_percentage: 3.37; name: Game of Thrones - A Telltale Games Series; Game: Game of Thrones - A Telltale Games Series; Time (Hrs): 47.7; Playtime (%): 3.37" role="graphics-symbol" aria-roledescription="arc mark" transform="translate(350,200)" d="M194.7,-45.737A200,200,0,0,0,180.741,-85.631L0,0Z" fill="#FF4500" stroke="black" stroke-width="1"/><path aria-label="playtime_percentage: 2.86; name: The Walking Dead; Game: The Walking Dead; Time (Hrs): 40.5; Playtime (%): 2.86" role="graphics-symbol" aria-roledescription="arc mark" transform="translate(350,200)" d="M-44.115,-195.074A200,200,0,0,0,-78.267,-184.05L0,0Z" fill="#0000FF" stroke="black" stroke-width="1"/><path aria-label="playtime_percentage: 2.62; name: Middle-earth™: Shadow of Mordor™; Game: Middle-earth™: Shadow of Mordor™; Time (Hrs): 37.0; Playtime (%): 2.62" role="graphics-symbol" aria-roledescription="arc mark" transform="translate(350,200)" d="M199.563,-13.215A200,200,0,0,0,194.7,-45.737L0,0Z" fill="#3D3A38" stroke="black" stroke-width="1"/><path aria-label="playtime_percentage: 2.54; name: Batman: The Enemy Within - The Telltale Series; Game: Batman: The Enemy Within - The Telltale Series; Time (Hrs): 35.9; Playtime (%): 2.54" role="graphics-symbol" aria-roledescription="arc mark" transform="translate(350,200)" d="M114.064,-164.285A200,200,0,0,0,86.51,-180.322L0,0Z" fill="#800080" stroke="black" stroke-width="1"/><path aria-label="playtime_percentage: 1.49; name: Batman: Arkham City GOTY; Game: Batman: Arkham City GOTY; Time (Hrs): 21.1; Playtime (%): 1.49" role="graphics-symbol" aria-roledescription="arc mark" transform="translate(350,200)" d="M86.51,-180.322A200,200,0,0,0,69.276,-187.619L0,0Z" fill="#FFA500" stroke="black" stroke-width="1"/><path aria-label="playtime_percentage: 1.48; name: DOOM; Game: DOOM; Time (Hrs): 20.9; Playtime (%): 1.48" role="graphics-symbol" aria-roledescription="arc mark" transform="translate(350,200)" d="M180.741,-85.631A200,200,0,0,0,172.01,-102.042L0,0Z" fill="#006400" stroke="black" stroke-width="1"/><path aria-label="playtime_percentage: 1.4; name: Trine 2; Game: Trine 2; Time (Hrs): 19.9; Playtime (%): 1.40" role="graphics-symbol" aria-roledescription="arc mark" transform="translate(350,200)" d="M0,-200A200,200,0,0,0,-17.568,-199.227L0,0Z" fill="#8B0000" stroke="black" stroke-width="1"/><path aria-label="playtime_percentage: 1.27; name: Tomb Raider; Game: Tomb Raider; Time (Hrs): 18.0; Playtime (%): 1.27" role="graphics-symbol" aria-roledescription="arc mark" transform="translate(350,200)" d="M-17.568,-199.227A200,200,0,0,0,-33.392,-197.193L0,0Z" fill="#FFD700" stroke="black" stroke-width="1"/><path aria-label="playtime_percentage: 0.95; name: Batman: Arkham Asylum GOTY Edition; Game: Batman: Arkham Asylum GOTY Edition; Time (Hrs): 13.4; Playtime (%): 0.95" role="graphics-symbol" aria-roledescription="arc mark" transform="translate(350,200)" d="M69.276,-187.619A200,200,0,0,0,57.961,-191.417L0,0Z" fill="#4682B4" stroke="black" stroke-width="1"/><path aria-label="playtime_percentage: 0.87; name: The Walking Dead: Season Two; Game: The Walking Dead: Season Two; Time (Hrs): 12.3; Playtime (%): 0.87" role="graphics-symbol" aria-roledescription="arc mark" transform="translate(350,200)" d="M-33.392,-197.193A200,200,0,0,0,-44.115,-195.074L0,0Z" fill="#2E8B57" stroke="black" stroke-width="1"/></g><g class="mark-group role-title"><g transform="translate(350,-44)"><path class="background" aria-hidden="true" d="M0,0h0v0h0Z" pointer-events="none"/><g><g class="mark-text role-title-text" role="graphics-symbol" aria-roledescription="title" aria-label="Title text 'Top 15 Games'" pointer-events="none"><text text-anchor="middle" transform="translate(0,16)" font-family="sans-serif" font-size="20px" font-weight="bold" fill="#000" opacity="1">Top 15 Games</text></g><g class="mark-text role-title-subtitle" role="graphics-symbol" aria-roledescription="subtitle" aria-label="Subtitle text 'Total Playtime: 1415.2 Hours'" pointer-events="none"><text text-anchor="middle" transform="translate(0,36)" font-family="sans-serif" font-size="16px" fill="#000" opacity="1">Total Playtime: 1415.2 Hours</text></g></g><path class="foreground" aria-hidden="true" d="" pointer-events="none" display="none"/></g></g></g><path class="foreground" aria-hidden="true" d="" display="none"/></g></g><g class="mark-group role-legend" role="graphics-symbol" aria-roledescription="legend" aria-label="Symbol legend for fill color with 15 values: The Elder Scrolls V: Skyrim, Batman™: Arkham Knight, The Lord of the Rings Online™, Batman - The Telltale Series, Stardew Valley, ending with The Walking Dead: Season Two"><g transform="translate(0,419)"><path class="background" aria-hidden="true" d="M0,0h1273v211h-1273Z" pointer-events="none"/><g><g class="mark-group role-legend-entry"><g transform="translate(75,75)"><path class="background" aria-hidden="true" d="M0,0h0v0h0Z" pointer-events="none"/><g><g class="mark-group role-scope" role="graphics-object" aria-roledescription="group mark container"><g transform="translate(0,0.25)"><path class="background" aria-hidden="true" d="M0,0h176v12.5h-176Z" pointer-events="none" opacity="1"/><g><g class="mark-symbol role-legend-symbol" pointer-events="none"><path transform="translate(6,6)" d="M5,0A5,5,0,1,1,-5,0A5,5,0,1,1,5,0" fill="#00008B" stroke="black" stroke-width="1.5" opacity="1"/></g><g class="mark-text role-legend-label" pointer-events="none"><text text-anchor="start" transform="translate(16,9)" font-family="sans-serif" font-size="10px" fill="#000" opacity="1">The Elder Scrolls V: Skyrim</text></g></g><path class="foreground" aria-hidden="true" d="" pointer-events="none" display="none"/></g><g transform="translate(252,0.25)"><path class="background" aria-hidden="true" d="M0,0h131.0537109375v12.5h-131.0537109375Z" pointer-events="none" opacity="1"/><g><g class="mark-symbol role-legend-symbol" pointer-events="none"><path transform="translate(6,6)" d="M5,0A5,5,0,1,1,-5,0A5,5,0,1,1,5,0" fill="#32CD32" stroke="black" stroke-width="1.5" opacity="1"/></g><g class="mark-text role-legend-label" pointer-events="none"><text text-anchor="start" transform="translate(16,9)" font-family="sans-serif" font-size="10px" fill="#000" opacity="1">Batman™: Arkham Knight</text></g></g><path class="foreground" aria-hidden="true" d="" pointer-events="none" display="none"/></g><g transform="translate(460,0.25)"><path class="background" aria-hidden="true" d="M0,0h176v12.5h-176Z" pointer-events="none" opacity="1"/><g><g class="mark-symbol role-legend-symbol" pointer-events="none"><path transform="translate(6,6)" d="M5,0A5,5,0,1,1,-5,0A5,5,0,1,1,5,0" fill="#00CED1" stroke="black" stroke-width="1.5" opacity="1"/></g><g class="mark-text role-legend-label" pointer-events="none"><text text-anchor="start" transform="translate(16,9)" font-family="sans-serif" font-size="10px" fill="#000" opacity="1">The Lord of the Rings Online™</text></g></g><path class="foreground" aria-hidden="true" d="" pointer-events="none" display="none"/></g><g transform="translate(712,0.25)"><path class="background" aria-hidden="true" d="M0,0h176v12.5h-176Z" pointer-events="none" opacity="1"/><g><g class="mark-symbol role-legend-symbol" pointer-events="none"><path transform="translate(6,6)" d="M5,0A5,5,0,1,1,-5,0A5,5,0,1,1,5,0" fill="#A8D7E7" stroke="black" stroke-width="1.5" opacity="1"/></g><g class="mark-text role-legend-label" pointer-events="none"><text text-anchor="start" transform="translate(16,9)" font-family="sans-serif" font-size="10px" fill="#000" opacity="1">Batman - The Telltale Series</text></g></g><path class="foreground" aria-hidden="true" d="" pointer-events="none" display="none"/></g><g transform="translate(964,0.25)"><path class="background" aria-hidden="true" d="M0,0h158.2998046875v12.5h-158.2998046875Z" pointer-events="none" opacity="1"/><g><g class="mark-symbol role-legend-symbol" pointer-events="none"><path transform="translate(6,6)" d="M5,0A5,5,0,1,1,-5,0A5,5,0,1,1,5,0" fill="#808080" stroke="black" stroke-width="1.5" opacity="1"/></g><g class="mark-text role-legend-label" pointer-events="none"><text text-anchor="start" transform="translate(16,9)" font-family="sans-serif" font-size="10px" fill="#000" opacity="1">Stardew Valley</text></g></g><path class="foreground" aria-hidden="true" d="" pointer-events="none" display="none"/></g><g transform="translate(0,24)"><path class="background" aria-hidden="true" d="M0,0h176v12.5h-176Z" pointer-events="none" opacity="1"/><g><g class="mark-symbol role-legend-symbol" pointer-events="none"><path transform="translate(6,6)" d="M5,0A5,5,0,1,1,-5,0A5,5,0,1,1,5,0" fill="#FF4500" stroke="black" stroke-width="1.5" opacity="1"/></g><g class="mark-text role-legend-label" pointer-events="none"><text text-anchor="start" transform="translate(16,9)" font-family="sans-serif" font-size="10px" fill="#000" opacity="1">Game of Thrones - A Telltale Ga…</text></g></g><path class="foreground" aria-hidden="true" d="" pointer-events="none" display="none"/></g><g transform="translate(252,24)"><path class="background" aria-hidden="true" d="M0,0h131.0537109375v12.5h-131.0537109375Z" pointer-events="none" opacity="1"/><g><g class="mark-symbol role-legend-symbol" pointer-events="none"><path transform="translate(6,6)" d="M5,0A5,5,0,1,1,-5,0A5,5,0,1,1,5,0" fill="#0000FF" stroke="black" stroke-width="1.5" opacity="1"/></g><g class="mark-text role-legend-label" pointer-events="none"><text text-anchor="start" transform="translate(16,9)" font-family="sans-serif" font-size="10px" fill="#000" opacity="1">The Walking Dead</text></g></g><path class="foreground" aria-hidden="true" d="" pointer-events="none" display="none"/></g><g transform="translate(460,24)"><path class="background" aria-hidden="true" d="M0,0h176v12.5h-176Z" pointer-events="none" opacity="1"/><g><g class="mark-symbol role-legend-symbol" pointer-events="none"><path transform="translate(6,6)" d="M5,0A5,5,0,1,1,-5,0A5,5,0,1,1,5,0" fill="#3D3A38" stroke="black" stroke-width="1.5" opacity="1"/></g><g class="mark-text role-legend-label" pointer-events="none"><text text-anchor="start" transform="translate(16,9)" font-family="sans-serif" font-size="10px" fill="#000" opacity="1">Middle-earth™: Shadow of Mordo…</text></g></g><path class="foreground" aria-hidden="true" d="" pointer-events="none" display="none"/></g><g transform="translate(712,24)"><path class="background" aria-hidden="true" d="M0,0h176v12.5h-176Z" pointer-events="none" opacity="1"/><g><g class="mark-symbol role-legend-symbol" pointer-events="none"><path transform="translate(6,6)" d="M5,0A5,5,0,1,1,-5,0A5,5,0,1,1,5,0" fill="#800080" stroke="black" stroke-width="1.5" opacity="1"/></g><g class="mark-text role-legend-label" pointer-events="none"><text text-anchor="start" transform="translate(16,9)" font-family="sans-serif" font-size="10px" fill="#000" opacity="1">Batman: The Enemy Within - The …</text></g></g><path class="foreground" aria-hidden="true" d="" pointer-events="none" display="none"/></g><g transform="translate(964,24)"><path class="background" aria-hidden="true" d="M0,0h158.2998046875v12.5h-158.2998046875Z" pointer-events="none" opacity="1"/><g><g class="mark-symbol role-legend-symbol" pointer-events="none"><path transform="translate(6,6)" d="M5,0A5,5,0,1,1,-5,0A5,5,0,1,1,5,0" fill="#FFA500" stroke="black" stroke-width="1.5" opacity="1"/></g><g class="mark-text role-legend-label" pointer-events="none"><text text-anchor="start" transform="translate(16,9)" font-family="sans-serif" font-size="10px" fill="#000" opacity="1">Batman: Arkham City GOTY</text></g></g><path class="foreground" aria-hidden="true" d="" pointer-events="none" display="none"/></g><g transform="translate(0,48)"><path class="background" aria-hidden="true" d="M0,0h176v12.5h-176Z" pointer-events="none" opacity="1"/><g><g class="mark-symbol role-legend-symbol" pointer-events="none"><path transform="translate(6,6)" d="M5,0A5,5,0,1,1,-5,0A5,5,0,1,1,5,0" fill="#006400" stroke="black" stroke-width="1.5" opacity="1"/></g><g class="mark-text role-legend-label" pointer-events="none"><text text-anchor="start" transform="translate(16,9)" font-family="sans-serif" font-size="10px" fill="#000" opacity="1">DOOM</text></g></g><path class="foreground" aria-hidden="true" d="" pointer-events="none" display="none"/></g><g transform="translate(252,48)"><path class="background" aria-hidden="true" d="M0,0h131.0537109375v12.5h-131.0537109375Z" pointer-events="none" opacity="1"/><g><g class="mark-symbol role-legend-symbol" pointer-events="none"><path transform="translate(6,6)" d="M5,0A5,5,0,1,1,-5,0A5,5,0,1,1,5,0" fill="#8B0000" stroke="black" stroke-width="1.5" opacity="1"/></g><g class="mark-text role-legend-label" pointer-events="none"><text text-anchor="start" transform="translate(16,9)" font-family="sans-serif" font-size="10px" fill="#000" opacity="1">Trine 2</text></g></g><path class="foreground" aria-hidden="true" d="" pointer-events="none" display="none"/></g><g transform="translate(460,48)"><path class="background" aria-hidden="true" d="M0,0h176v12.5h-176Z" pointer-events="none" opacity="1"/><g><g class="mark-symbol role-legend-symbol" pointer-events="none"><path transform="translate(6,6)" d="M5,0A5,5,0,1,1,-5,0A5,5,0,1,1,5,0" fill="#FFD700" stroke="black" stroke-width="1.5" opacity="1"/></g><g class="mark-text role-legend-label" pointer-events="none"><text text-anchor="start" transform="translate(16,9)" font-family="sans-serif" font-size="10px" fill="#000" opacity="1">Tomb Raider</text></g></g><path class="foreground" aria-hidden="true" d="" pointer-events="none" display="none"/></g><g transform="translate(712,48)"><path class="background" aria-hidden="true" d="M0,0h176v12.5h-176Z" pointer-events="none" opacity="1"/><g><g class="mark-symbol role-legend-symbol" pointer-events="none"><path transform="translate(6,6)" d="M5,0A5,5,0,1,1,-5,0A5,5,0,1,1,5,0" fill="#4682B4" stroke="black" stroke-width="1.5" opacity="1"/></g><g class="mark-text role-legend-label" pointer-events="none"><text text-anchor="start" transform="translate(16,9)" font-family="sans-serif" font-size="10px" fill="#000" opacity="1">Batman: Arkham Asylum GOTY E…</text></g></g><path class="foreground" aria-hidden="true" d="" pointer-events="none" display="none"/></g><g transform="translate(964,48)"><path class="background" aria-hidden="true" d="M0,0h158.2998046875v12.5h-158.2998046875Z" pointer-events="none" opacity="1"/><g><g class="mark-symbol role-legend-symbol" pointer-events="none"><path transform="translate(6,6)" d="M5,0A5,5,0,1,1,-5,0A5,5,0,1,1,5,0" fill="#2E8B57" stroke="black" stroke-width="1.5" opacity="1"/></g><g class="mark-text role-legend-label" pointer-events="none"><text text-anchor="start" transform="translate(16,9)" font-family="sans-serif" font-size="10px" fill="#000" opacity="1">The Walking Dead: Season Two</text></g></g><path class="foreground" aria-hidden="true" d="" pointer-events="none" display="none"/></g></g></g><path class="foreground" aria-hidden="true" d="" pointer-events="none" display="none"/></g></g></g><path class="foreground" aria-hidden="true" d="" pointer-events="none" display="none"/></g></g><g class="mark-group role-title"><g transform="translate(636.5,-102)"><path class="background" aria-hidden="true" d="M0,0h0v0h0Z" pointer-events="none"/><g><g class="mark-text role-title-text" role="graphics-symbol" aria-roledescription="title" aria-label="Title text 'Dipto9999's Steam Dashboard'" pointer-events="none"><text text-anchor="middle" transform="translate(0,32)" font-family="sans-serif" font-size="40px" font-weight="bold" fill="#000" opacity="1">Dipto9999's Steam Dashboard</text></g></g><path class="foreground" aria-hidden="true" d="" pointer-events="none" display="none"/></g></g></g><path class="foreground" aria-hidden="true" d="" display="none"/></g></g></g></svg>