<svg xmlns="http://www.w3.org/2000/svg" xmlns:xlink="http://www.w3.org/1999/xlink" version="1.1" class="marks" width="700" height="611" viewBox="0 0 700 611"><rect width="700" height="611" fill="white"/><g fill="none" stroke-miterlimit="10" transform="translate(40,91)"><g class="mark-group role-frame root" role="graphics-object" aria-roledescription="group mark container"><g transform="translate(0,0)"><path class="background" aria-hidden="true" d="M0,0h0v0h0Z"/><g><g class="mark-group role-scope concat_0_group" role="graphics-object" aria-roledescription="group mark container"><g transform="translate(0,0)"><path class="background" aria-hidden="true" d="M0,0h0v0h0Z"/><g><g class="mark-group role-scope concat_0_concat_0_group" role="graphics-object" aria-roledescription="group mark container"><g transform="translate(0,0)"><path class="background" aria-hidden="true" d="M0,0h200v120h-200Z" stroke="#ddd" stroke-opacity="0" stroke-width="1.5"/><g><g class="mark-text role-mark concat_0_concat_0_marks" role="graphics-object" aria-roledescription="text mark container"><text aria-label="Metric: Level; Value: 18" role="graphics-symbol" aria-roledescription="text mark" text-anchor="middle" transform="translate(100,61)" font-family="sans-serif" font-size="70px" font-weight="bold" fill="#141331">18</text></g><g class="mark-group role-title"><g transform="translate(100,-22)"><path class="background" aria-hidden="true" d="M0,0h0v0h0Z" pointer-events="none"/><g><g class="mark-text role-title-text" role="graphics-symbol" aria-roledescription="title" aria-label="Title text 'Level'" pointer-events="none"><text text-anchor="middle" transform="translate(0,14)" font-family="sans-serif" font-size="18px" font-weight="bold" fill="#000" opacity="1">Level</text></g></g><path class="foreground" aria-hidden="true" d="" pointer-events="none" display="none"/></g></g></g><path class="foreground" aria-hidden="true" d="" display="none"/></g></g><g class="mark-group role-scope concat_0_concat_1_group" role="graphics-object" aria-roledescription="group mark container"><g transform="translate(0,162)"><path class="background" aria-hidden="true" d="M0,0h200v120h-200Z" stroke="#ddd" stroke-opacity="0" stroke-width="1.5"/><g><g class="mark-text role-mark concat_0_concat_1_marks" role="graphics-object" aria-roledescription="text mark container"><text aria-label="Metric: Played; Value: 45" role="graphics-symbol" aria-roledescription="text mark" text-anchor="middle" transform="translate(100,61)" font-family="sans-serif" font-size="70px" font-weight="bold" fill="#141331">45</text></g><g class="mark-group role-title"><g transform="translate(100,-22)"><path class="background" aria-hidden="true" d="M0,0h0v0h0Z" pointer-events="none"/><g><g class="mark-text role-title-text" role="graphics-symbol" aria-roledescription="title" aria-label="Title text 'Played'" pointer-events="none"><text text-anchor="middle" transform="translate(0,14)" font-family="sans-serif" font-size="18px" font-weight="bold" fill="#000" opacity="1">Played</text></g></g><path class="foreground" aria-hidden="true" d="" pointer-events="none" display="none"/></g></g></g><path class="foreground" aria-hidden="true" d="" display="none"/></g></g><g class="mark-group role-title"><g transform="translate(100,-48)"><path class="background" aria-hidden="true" d="M0,0h0v0h0Z" pointer-events="none"/><g><g class="mark-text role-title-text" role="graphics-symbol" aria-roledescription="title" aria-label="Title text 'Player Stats'" pointer-events="none"><text text-anchor="middle" transform="translate(0,17)" font-family="sans-serif" font-size="22px" font-weight="bold" fill="#000" opacity="1">Player Stats</text></g></g><path class="foreground" aria-hidden="true" d="" pointer-events="none" display="none"/></g></g></g><path class="foreground" aria-hidden="true" d="" display="none"/></g></g><g class="mark-group role-scope concat_1_group" role="graphics-object" aria-roledescription="group mark container"><g transform="translate(220,0)"><path class="background" aria-hidden="true" d="M0,0h400v320h-400Z"/><g><g class="mark-arc role-mark concat_1_marks" role="graphics-object" aria-roledescription="arc mark container"><path aria-label="playtime_percentage: 58.66; name: The Elder Scrolls V: Skyrim; Game: The Elder Scrolls V: Skyrim; Time (Hrs): 845.3; Playtime (%): 58.66" role="graphics-symbol" aria-roledescription="arc mark" transform="translate(200,160)" d="M-85.315,-135.356A160,160,0,1,0,143.09,71.591L0,0Z" fill="#00008B" stroke="black" stroke-width="1"/><path aria-label="playtime_percentage: 6.69; name: Batman: Arkham Knight; Game: Batman: Arkham Knight; Time (Hrs): 96.5; Playtime (%): 6.69" role="graphics-symbol" aria-roledescription="arc mark" transform="translate(200,160)" d="M78.406,-139.472A160,160,0,0,0,14.658,-159.327L0,0Z" fill="#32CD32" stroke="black" stroke-width="1"/><path aria-label="playtime_percentage: 6.32; name: The Lord of the Rings Online; Game: The Lord of the Rings Online; Time (Hrs): 91.0; Playtime (%): 6.32" role="graphics-symbol" aria-roledescription="arc mark" transform="translate(200,160)" d="M-26.322,-157.82A160,160,0,0,0,-85.315,-135.356L0,0Z" fill="#00CED1" stroke="black" stroke-width="1"/><path aria-label="playtime_percentage: 4.6; name: Telltale: Batman; Game: Telltale: Batman; Time (Hrs): 66.2; Playtime (%): 4.60" role="graphics-symbol" aria-roledescription="arc mark" transform="translate(200,160)" d="M159.524,-12.329A160,160,0,0,0,149.392,-57.29L0,0Z" fill="#A8D7E7" stroke="black" stroke-width="1"/><path aria-label="playtime_percentage: 3.44; name: Stardew Valley; Game: Stardew Valley; Time (Hrs): 49.5; Playtime (%): 3.44" role="graphics-symbol" aria-roledescription="arc mark" transform="translate(200,160)" d="M149.392,-57.29A160,160,0,0,0,133.627,-87.998L0,0Z" fill="#808080" stroke="black" stroke-width="1"/><path aria-label="playtime_percentage: 3.31; name: Telltale: Game of Thrones; Game: Telltale: Game of Thrones; Time (Hrs): 47.7; Playtime (%): 3.31" role="graphics-symbol" aria-roledescription="arc mark" transform="translate(200,160)" d="M153.441,45.342A160,160,0,0,0,159.497,12.68L0,0Z" fill="#FF4500" stroke="black" stroke-width="1"/><path aria-label="playtime_percentage: 2.81; name: Telltale: The Walking Dead; Game: Telltale: The Walking Dead; Time (Hrs): 40.5; Playtime (%): 2.81" role="graphics-symbol" aria-roledescription="arc mark" transform="translate(200,160)" d="M143.09,71.591A160,160,0,0,0,153.441,45.342L0,0Z" fill="#0000FF" stroke="black" stroke-width="1"/><path aria-label="playtime_percentage: 2.57; name: Shadow of Mordor; Game: Shadow of Mordor; Time (Hrs): 37.0; Playtime (%): 2.57" role="graphics-symbol" aria-roledescription="arc mark" transform="translate(200,160)" d="M133.627,-87.998A160,160,0,0,0,117.739,-108.34L0,0Z" fill="#3D3A38" stroke="black" stroke-width="1"/><path aria-label="playtime_percentage: 2.49; name: Telltale: Batman The Enemy Within; Game: Telltale: Batman The Enemy Within; Time (Hrs): 35.9; Playtime (%): 2.49" role="graphics-symbol" aria-roledescription="arc mark" transform="translate(200,160)" d="M159.497,12.68A160,160,0,0,0,159.524,-12.329L0,0Z" fill="#800080" stroke="black" stroke-width="1"/><path aria-label="playtime_percentage: 2.27; name: Batman: Arkham Origins; Game: Batman: Arkham Origins; Time (Hrs): 32.8; Playtime (%): 2.27" role="graphics-symbol" aria-roledescription="arc mark" transform="translate(200,160)" d="M97.437,-126.91A160,160,0,0,0,78.406,-139.472L0,0Z" fill="#FFA500" stroke="black" stroke-width="1"/><path aria-label="playtime_percentage: 1.46; name: Batman: Arkham City; Game: Batman: Arkham City; Time (Hrs): 21.1; Playtime (%): 1.46" role="graphics-symbol" aria-roledescription="arc mark" transform="translate(200,160)" d="M14.658,-159.327A160,160,0,0,0,0,-160L0,0Z" fill="#006400" stroke="black" stroke-width="1"/><path aria-label="playtime_percentage: 1.45; name: DOOM; Game: DOOM; Time (Hrs): 20.9; Playtime (%): 1.45" role="graphics-symbol" aria-roledescription="arc mark" transform="translate(200,160)" d="M108.58,-117.518A160,160,0,0,0,97.437,-126.91L0,0Z" fill="#8B0000" stroke="black" stroke-width="1"/><path aria-label="playtime_percentage: 1.38; name: Trine 2; Game: Trine 2; Time (Hrs): 19.9; Playtime (%): 1.38" role="graphics-symbol" aria-roledescription="arc mark" transform="translate(200,160)" d="M0,-160A160,160,0,0,0,-13.857,-159.399L0,0Z" fill="#FFD700" stroke="black" stroke-width="1"/><path aria-label="playtime_percentage: 1.29; name: Rise of the Tomb Raider; Game: Rise of the Tomb Raider; Time (Hrs): 18.6; Playtime (%): 1.29" role="graphics-symbol" aria-roledescription="arc mark" transform="translate(200,160)" d="M117.739,-108.34A160,160,0,0,0,108.58,-117.518L0,0Z" fill="#4682B4" stroke="black" stroke-width="1"/><path aria-label="playtime_percentage: 1.25; name: Tomb Raider; Game: Tomb Raider; Time (Hrs): 18.0; Playtime (%): 1.25" role="graphics-symbol" aria-roledescription="arc mark" transform="translate(200,160)" d="M-13.857,-159.399A160,160,0,0,0,-26.322,-157.82L0,0Z" fill="#2E8B57" stroke="black" stroke-width="1"/></g><g class="mark-group role-title"><g transform="translate(200,-46)"><path class="background" aria-hidden="true" d="M0,0h0v0h0Z" pointer-events="none"/><g><g class="mark-text role-title-text" role="graphics-symbol" aria-roledescription="title" aria-label="Title text 'Top Games'" pointer-events="none"><text text-anchor="middle" transform="translate(0,17)" font-family="sans-serif" font-size="22px" font-weight="bold" fill="#000" opacity="1">Top Games</text></g><g class="mark-text role-title-subtitle" role="graphics-symbol" aria-roledescription="subtitle" aria-label="Subtitle text 'Total Playtime: 1440.9 Hrs'" pointer-events="none"><text text-anchor="middle" transform="translate(0,37)" font-family="sans-serif" font-size="15px" fill="#000" opacity="1">Total Playtime: 1440.9 Hrs</text></g></g><path class="foreground" aria-hidden="true" d="" pointer-events="none" display="none"/></g></g></g><path class="foreground" aria-hidden="true" d="" display="none"/></g></g><g class="mark-group role-legend" role="graphics-symbol" aria-roledescription="legend" aria-label="Symbol legend for fill color with 15 values: The Elder Scrolls V: Skyrim, Batman: Arkham Knight, The Lord of the Rings Online, Telltale: Batman, Stardew Valley, ending with Tomb Raider"><g transform="translate(0,339)"><path class="background" aria-hidden="true" d="M0,0h503v171h-503Z" pointer-events="none"/><g><g class="mark-group role-legend-entry"><g transform="translate(35,35)"><path class="background" aria-hidden="true" d="M0,0h0v0h0Z" pointer-events="none"/><g><g class="mark-group role-scope" role="graphics-object" aria-roledescription="group mark container"><g transform="translate(0,0.25)"><path class="background" aria-hidden="true" d="M0,0h125.19091796875v12.5h-125.19091796875Z" pointer-events="none" opacity="1"/><g><g class="mark-symbol role-legend-symbol" pointer-events="none"><path transform="translate(6,6)" d="M5,0A5,5,0,1,1,-5,0A5,5,0,1,1,5,0" fill="#00008B" stroke="black" stroke-width="1.5" opacity="1"/></g><g class="mark-text role-legend-label" pointer-events="none"><text text-anchor="start" transform="translate(16,9)" font-family="sans-serif" font-size="9px" fill="#000" opacity="1">The Elder Scrolls V: Skyrim</text></g></g><path class="foreground" aria-hidden="true" d="" pointer-events="none" display="none"/></g><g transform="translate(145,0.25)"><path class="background" aria-hidden="true" d="M0,0h112.380859375v12.5h-112.380859375Z" pointer-events="none" opacity="1"/><g><g class="mark-symbol role-legend-symbol" pointer-events="none"><path transform="translate(6,6)" d="M5,0A5,5,0,1,1,-5,0A5,5,0,1,1,5,0" fill="#32CD32" stroke="black" stroke-width="1.5" opacity="1"/></g><g class="mark-text role-legend-label" pointer-events="none"><text text-anchor="start" transform="translate(16,9)" font-family="sans-serif" font-size="9px" fill="#000" opacity="1">Batman: Arkham Knight</text></g></g><path class="foreground" aria-hidden="true" d="" pointer-events="none" display="none"/></g><g transform="translate(277,0.25)"><path class="background" aria-hidden="true" d="M0,0h155.8955078125v12.5h-155.8955078125Z" pointer-events="none" opacity="1"/><g><g class="mark-symbol role-legend-symbol" pointer-events="none"><path transform="translate(6,6)" d="M5,0A5,5,0,1,1,-5,0A5,5,0,1,1,5,0" fill="#00CED1" stroke="black" stroke-width="1.5" opacity="1"/></g><g class="mark-text role-legend-label" pointer-events="none"><text text-anchor="start" transform="translate(16,9)" font-family="sans-serif" font-size="9px" fill="#000" opacity="1">The Lord of the Rings Online</text></g></g><path class="foreground" aria-hidden="true" d="" pointer-events="none" display="none"/></g><g transform="translate(0,22)"><path class="background" aria-hidden="true" d="M0,0h125.19091796875v12.5h-125.19091796875Z" pointer-events="none" opacity="1"/><g><g class="mark-symbol role-legend-symbol" pointer-events="none"><path transform="translate(6,6)" d="M5,0A5,5,0,1,1,-5,0A5,5,0,1,1,5,0" fill="#A8D7E7" stroke="black" stroke-width="1.5" opacity="1"/></g><g class="mark-text role-legend-label" pointer-events="none"><text text-anchor="start" transform="translate(16,9)" font-family="sans-serif" font-size="9px" fill="#000" opacity="1">Telltale: Batman</text></g></g><path class="foreground" aria-hidden="true" d="" pointer-events="none" display="none"/></g><g transform="translate(145,22)"><path class="background" aria-hidden="true" d="M0,0h112.380859375v12.5h-112.380859375Z" pointer-events="none" opacity="1"/><g><g class="mark-symbol role-legend-symbol" pointer-events="none"><path transform="translate(6,6)" d="M5,0A5,5,0,1,1,-5,0A5,5,0,1,1,5,0" fill="#808080" stroke="black" stroke-width="1.5" opacity="1"/></g><g class="mark-text role-legend-label" pointer-events="none"><text text-anchor="start" transform="translate(16,9)" font-family="sans-serif" font-size="9px" fill="#000" opacity="1">Stardew Valley</text></g></g><path class="foreground" aria-hidden="true" d="" pointer-events="none" display="none"/></g><g transform="translate(277,22)"><path class="background" aria-hidden="true" d="M0,0h155.8955078125v12.5h-155.8955078125Z" pointer-events="none" opacity="1"/><g><g class="mark-symbol role-legend-symbol" pointer-events="none"><path transform="translate(6,6)" d="M5,0A5,5,0,1,1,-5,0A5,5,0,1,1,5,0" fill="#FF4500" stroke="black" stroke-width="1.5" opacity="1"/></g><g class="mark-text role-legend-label" pointer-events="none"><text text-anchor="start" transform="translate(16,9)" font-family="sans-serif" font-size="9px" fill="#000" opacity="1">Telltale: Game of Thrones</text></g></g><path class="foreground" aria-hidden="true" d="" pointer-events="none" display="none"/></g><g transform="translate(0,44)"><path class="background" aria-hidden="true" d="M0,0h125.19091796875v12.5h-125.19091796875Z" pointer-events="none" opacity="1"/><g><g class="mark-symbol role-legend-symbol" pointer-events="none"><path transform="translate(6,6)" d="M5,0A5,5,0,1,1,-5,0A5,5,0,1,1,5,0" fill="#0000FF" stroke="black" stroke-width="1.5" opacity="1"/></g><g class="mark-text role-legend-label" pointer-events="none"><text text-anchor="start" transform="translate(16,9)" font-family="sans-serif" font-size="9px" fill="#000" opacity="1">Telltale: The Walking Dead</text></g></g><path class="foreground" aria-hidden="true" d="" pointer-events="none" display="none"/></g><g transform="translate(145,44)"><path class="background" aria-hidden="true" d="M0,0h112.380859375v12.5h-112.380859375Z" pointer-events="none" opacity="1"/><g><g class="mark-symbol role-legend-symbol" pointer-events="none"><path transform="translate(6,6)" d="M5,0A5,5,0,1,1,-5,0A5,5,0,1,1,5,0" fill="#3D3A38" stroke="black" stroke-width="1.5" opacity="1"/></g><g class="mark-text role-legend-label" pointer-events="none"><text text-anchor="start" transform="translate(16,9)" font-family="sans-serif" font-size="9px" fill="#000" opacity="1">Shadow of Mordor</text></g></g><path class="foreground" aria-hidden="true" d="" pointer-events="none" display="none"/></g><g transform="translate(277,44)"><path class="background" aria-hidden="true" d="M0,0h155.8955078125v12.5h-155.8955078125Z" pointer-events="none" opacity="1"/><g><g class="mark-symbol role-legend-symbol" pointer-events="none"><path transform="translate(6,6)" d="M5,0A5,5,0,1,1,-5,0A5,5,0,1,1,5,0" fill="#800080" stroke="black" stroke-width="1.5" opacity="1"/></g><g class="mark-text role-legend-label" pointer-events="none"><text text-anchor="start" transform="translate(16,9)" font-family="sans-serif" font-size="9px" fill="#000" opacity="1">Telltale: Batman The Enemy Within</text></g></g><path class="foreground" aria-hidden="true" d="" pointer-events="none" display="none"/></g><g transform="translate(0,66)"><path class="background" aria-hidden="true" d="M0,0h125.19091796875v12.5h-125.19091796875Z" pointer-events="none" opacity="1"/><g><g class="mark-symbol role-legend-symbol" pointer-events="none"><path transform="translate(6,6)" d="M5,0A5,5,0,1,1,-5,0A5,5,0,1,1,5,0" fill="#FFA500" stroke="black" stroke-width="1.5" opacity="1"/></g><g class="mark-text role-legend-label" pointer-events="none"><text text-anchor="start" transform="translate(16,9)" font-family="sans-serif" font-size="9px" fill="#000" opacity="1">Batman: Arkham Origins</text></g></g><path class="foreground" aria-hidden="true" d="" pointer-events="none" display="none"/></g><g transform="translate(145,66)"><path class="background" aria-hidden="true" d="M0,0h112.380859375v12.5h-112.380859375Z" pointer-events="none" opacity="1"/><g><g class="mark-symbol role-legend-symbol" pointer-events="none"><path transform="translate(6,6)" d="M5,0A5,5,0,1,1,-5,0A5,5,0,1,1,5,0" fill="#006400" stroke="black" stroke-width="1.5" opacity="1"/></g><g class="mark-text role-legend-label" pointer-events="none"><text text-anchor="start" transform="translate(16,9)" font-family="sans-serif" font-size="9px" fill="#000" opacity="1">Batman: Arkham City</text></g></g><path class="foreground" aria-hidden="true" d="" pointer-events="none" display="none"/></g><g transform="translate(277,66)"><path class="background" aria-hidden="true" d="M0,0h155.8955078125v12.5h-155.8955078125Z" pointer-events="none" opacity="1"/><g><g class="mark-symbol role-legend-symbol" pointer-events="none"><path transform="translate(6,6)" d="M5,0A5,5,0,1,1,-5,0A5,5,0,1,1,5,0" fill="#8B0000" stroke="black" stroke-width="1.5" opacity="1"/></g><g class="mark-text role-legend-label" pointer-events="none"><text text-anchor="start" transform="translate(16,9)" font-family="sans-serif" font-size="9px" fill="#000" opacity="1">DOOM</text></g></g><path class="foreground" aria-hidden="true" d="" pointer-events="none" display="none"/></g><g transform="translate(0,88)"><path class="background" aria-hidden="true" d="M0,0h125.19091796875v12.5h-125.19091796875Z" pointer-events="none" opacity="1"/><g><g class="mark-symbol role-legend-symbol" pointer-events="none"><path transform="translate(6,6)" d="M5,0A5,5,0,1,1,-5,0A5,5,0,1,1,5,0" fill="#FFD700" stroke="black" stroke-width="1.5" opacity="1"/></g><g class="mark-text role-legend-label" pointer-events="none"><text text-anchor="start" transform="translate(16,9)" font-family="sans-serif" font-size="9px" fill="#000" opacity="1">Trine 2</text></g></g><path class="foreground" aria-hidden="true" d="" pointer-events="none" display="none"/></g><g transform="translate(145,88)"><path class="background" aria-hidden="true" d="M0,0h112.380859375v12.5h-112.380859375Z" pointer-events="none" opacity="1"/><g><g class="mark-symbol role-legend-symbol" pointer-events="none"><path transform="translate(6,6)" d="M5,0A5,5,0,1,1,-5,0A5,5,0,1,1,5,0" fill="#4682B4" stroke="black" stroke-width="1.5" opacity="1"/></g><g class="mark-text role-legend-label" pointer-events="none"><text text-anchor="start" transform="translate(16,9)" font-family="sans-serif" font-size="9px" fill="#000" opacity="1">Rise of the Tomb Raider</text></g></g><path class="foreground" aria-hidden="true" d="" pointer-events="none" display="none"/></g><g transform="translate(277,88)"><path class="background" aria-hidden="true" d="M0,0h155.8955078125v12.5h-155.8955078125Z" pointer-events="none" opacity="1"/><g><g class="mark-symbol role-legend-symbol" pointer-events="none"><path transform="translate(6,6)" d="M5,0A5,5,0,1,1,-5,0A5,5,0,1,1,5,0" fill="#2E8B57" stroke="black" stroke-width="1.5" opacity="1"/></g><g class="mark-text role-legend-label" pointer-events="none"><text text-anchor="start" transform="translate(16,9)" font-family="sans-serif" font-size="9px" fill="#000" opacity="1">Tomb Raider</text></g></g><path class="foreground" aria-hidden="true" d="" pointer-events="none" display="none"/></g></g></g><path class="foreground" aria-hidden="true" d="" pointer-events="none" display="none"/></g></g></g><path class="foreground" aria-hidden="true" d="" pointer-events="none" display="none"/></g></g><g class="mark-group role-title"><g transform="translate(310,-81)"><path class="background" aria-hidden="true" d="M0,0h0v0h0Z" pointer-events="none"/><g><g class="mark-text role-title-text" role="graphics-symbol" aria-roledescription="title" aria-label="Title text 'Dipto9999's Steam Dashboard'" pointer-events="none"><text text-anchor="middle" transform="translate(0,22)" font-family="sans-serif" font-size="28px" font-weight="bold" fill="#000" opacity="1">Dipto9999's Steam Dashboard</text></g></g><path class="foreground" aria-hidden="true" d="" pointer-events="none" display="none"/></g></g></g><path class="foreground" aria-hidden="true" d="" display="none"/></g></g></g></svg>