<svg xmlns="http://www.w3.org/2000/svg" xmlns:xlink="http://www.w3.org/1999/xlink" version="1.1" class="marks" width="1879" height="705" viewBox="0 0 1879 705"><rect width="1879" height="705" fill="white"/><g fill="none" stroke-miterlimit="10" transform="translate(299,100)"><g class="mark-group role-frame root" role="graphics-object" aria-roledescription="group mark container"><g transform="translate(0,0)"><path class="background" aria-hidden="true" d="M0,0h0v0h0Z"/><g><g class="mark-group role-scope concat_0_group" role="graphics-object" aria-roledescription="group mark container"><g transform="translate(0,0)"><path class="background" aria-hidden="true" d="M0,0h0v0h0Z"/><g><g class="mark-group role-scope concat_0_concat_0_group" role="graphics-object" aria-roledescription="group mark container"><g transform="translate(0,0)"><path class="background" aria-hidden="true" d="M0,0h0v0h0Z"/><g><g class="mark-group role-scope concat_0_concat_0_concat_0_group" role="graphics-object" aria-roledescription="group mark container"><g transform="translate(0,0)"><path class="background" aria-hidden="true" d="M0,0h150v150h-150Z" stroke="#ddd" stroke-opacity="0" stroke-width="1.5"/><g><g class="mark-text role-mark concat_0_concat_0_concat_0_marks" role="graphics-object" aria-roledescription="text mark container"><text aria-label="Metric: Steam Level; Value: 21" role="graphics-symbol" aria-roledescription="text mark" text-anchor="middle" transform="translate(75,68)" font-family="sans-serif" font-size="60px" font-weight="bold" fill="#141331">21</text></g><g class="mark-group role-title"><g transform="translate(75,-22)"><path class="background" aria-hidden="true" d="M0,0h0v0h0Z" pointer-events="none"/><g><g class="mark-text role-title-text" role="graphics-symbol" aria-roledescription="title" aria-label="Title text 'Steam Level'" pointer-events="none"><text text-anchor="middle" transform="translate(0,14)" font-family="sans-serif" font-size="18px" font-weight="bold" fill="#000" opacity="1">Steam Level</text></g></g><path class="foreground" aria-hidden="true" d="" pointer-events="none" display="none"/></g></g></g><path class="foreground" aria-hidden="true" d="" display="none"/></g></g><g class="mark-group role-scope concat_0_concat_0_concat_1_group" role="graphics-object" aria-roledescription="group mark container"><g transform="translate(170,0)"><path class="background" aria-hidden="true" d="M0,0h150v150h-150Z" stroke="#ddd" stroke-opacity="0" stroke-width="1.5"/><g><g class="mark-text role-mark concat_0_concat_0_concat_1_marks" role="graphics-object" aria-roledescription="text mark container"><text aria-label="Metric: PSN Level; Value: 200" role="graphics-symbol" aria-roledescription="text mark" text-anchor="middle" transform="translate(75,68)" font-family="sans-serif" font-size="60px" font-weight="bold" fill="#141331">200</text></g><g class="mark-group role-title"><g transform="translate(75,-22)"><path class="background" aria-hidden="true" d="M0,0h0v0h0Z" pointer-events="none"/><g><g class="mark-text role-title-text" role="graphics-symbol" aria-roledescription="title" aria-label="Title text 'PSN Level'" pointer-events="none"><text text-anchor="middle" transform="translate(0,14)" font-family="sans-serif" font-size="18px" font-weight="bold" fill="#000" opacity="1">PSN Level</text></g></g><path class="foreground" aria-hidden="true" d="" pointer-events="none" display="none"/></g></g></g><path class="foreground" aria-hidden="true" d="" display="none"/></g></g></g><path class="foreground" aria-hidden="true" d="" display="none"/></g></g><g class="mark-group role-scope concat_0_concat_1_group" role="graphics-object" aria-roledescription="group mark container"><g transform="translate(0,194)"><path class="background" aria-hidden="true" d="M0,0h300v150h-300Z" stroke="#ddd" stroke-opacity="0" stroke-width="1.5"/><g><g class="mark-text role-mark concat_0_concat_1_marks" role="graphics-object" aria-roledescription="text mark container"><text aria-label="Metric: Played; Value: 71" role="graphics-symbol" aria-roledescription="text mark" text-anchor="middle" transform="translate(150,74)" font-family="sans-serif" font-size="80px" font-weight="bold" fill="#141331">71</text></g><g class="mark-group role-title"><g transform="translate(150,-24)"><path class="background" aria-hidden="true" d="M0,0h0v0h0Z" pointer-events="none"/><g><g class="mark-text role-title-text" role="graphics-symbol" aria-roledescription="title" aria-label="Title text 'Played'" pointer-events="none"><text text-anchor="middle" transform="translate(0,16)" font-family="sans-serif" font-size="20px" font-weight="bold" fill="#000" opacity="1">Played</text></g></g><path class="foreground" aria-hidden="true" d="" pointer-events="none" display="none"/></g></g></g><path class="foreground" aria-hidden="true" d="" display="none"/></g></g><g class="mark-group role-scope concat_0_concat_2_group" role="graphics-object" aria-roledescription="group mark container"><g transform="translate(0,405)"><path class="background" aria-hidden="true" d="M0,0h250v150h-250Z" stroke="#ddd" stroke-opacity="0" stroke-width="1.5"/><g><g class="mark-group role-axis" aria-hidden="true"><g transform="translate(0.5,150.5)"><path class="background" aria-hidden="true" d="M0,0h0v0h0Z" pointer-events="none"/><g><g class="mark-rule role-axis-grid" pointer-events="none"><line transform="translate(0,0)" x2="0" y2="-150" stroke="#ddd" stroke-width="1" opacity="1"/><line transform="translate(38,0)" x2="0" y2="-150" stroke="#ddd" stroke-width="1" opacity="1"/><line transform="translate(77,0)" x2="0" y2="-150" stroke="#ddd" stroke-width="1" opacity="1"/><line transform="translate(115,0)" x2="0" y2="-150" stroke="#ddd" stroke-width="1" opacity="1"/><line transform="translate(154,0)" x2="0" y2="-150" stroke="#ddd" stroke-width="1" opacity="1"/><line transform="translate(192,0)" x2="0" y2="-150" stroke="#ddd" stroke-width="1" opacity="1"/><line transform="translate(231,0)" x2="0" y2="-150" stroke="#ddd" stroke-width="1" opacity="1"/></g></g><path class="foreground" aria-hidden="true" d="" pointer-events="none" display="none"/></g></g><g class="mark-group role-axis" role="graphics-symbol" aria-roledescription="axis" aria-label="X-axis for a linear scale with values from 0 to 650"><g transform="translate(0.5,150.5)"><path class="background" aria-hidden="true" d="M0,0h0v0h0Z" pointer-events="none"/><g><g class="mark-rule role-axis-tick" pointer-events="none"><line transform="translate(0,0)" x2="0" y2="5" stroke="#888" stroke-width="1" opacity="1"/><line transform="translate(38,0)" x2="0" y2="5" stroke="#888" stroke-width="1" opacity="1"/><line transform="translate(77,0)" x2="0" y2="5" stroke="#888" stroke-width="1" opacity="1"/><line transform="translate(115,0)" x2="0" y2="5" stroke="#888" stroke-width="1" opacity="1"/><line transform="translate(154,0)" x2="0" y2="5" stroke="#888" stroke-width="1" opacity="1"/><line transform="translate(192,0)" x2="0" y2="5" stroke="#888" stroke-width="1" opacity="1"/><line transform="translate(231,0)" x2="0" y2="5" stroke="#888" stroke-width="1" opacity="1"/></g><g class="mark-text role-axis-label" pointer-events="none"><text text-anchor="start" transform="translate(0,16)" font-family="sans-serif" font-size="12px" fill="#000" opacity="1">0</text><text text-anchor="middle" transform="translate(38.46153846153847,16)" font-family="sans-serif" font-size="12px" fill="#000" opacity="1">100</text><text text-anchor="middle" transform="translate(76.92307692307693,16)" font-family="sans-serif" font-size="12px" fill="#000" opacity="1">200</text><text text-anchor="middle" transform="translate(115.38461538461539,16)" font-family="sans-serif" font-size="12px" fill="#000" opacity="1">300</text><text text-anchor="middle" transform="translate(153.84615384615387,16)" font-family="sans-serif" font-size="12px" fill="#000" opacity="1">400</text><text text-anchor="middle" transform="translate(192.30769230769232,16)" font-family="sans-serif" font-size="12px" fill="#000" opacity="1">500</text><text text-anchor="middle" transform="translate(230.76923076923077,16)" font-family="sans-serif" font-size="12px" fill="#000" opacity="1">600</text></g><g class="mark-rule role-axis-domain" pointer-events="none"><line transform="translate(0,0)" x2="250" y2="0" stroke="#888" stroke-width="1" opacity="1"/></g></g><path class="foreground" aria-hidden="true" d="" pointer-events="none" display="none"/></g></g><g class="mark-group role-axis" role="graphics-symbol" aria-roledescription="axis" aria-label="Y-axis for a discrete scale with 3 values: Gold, Silver, Bronze"><g transform="translate(0.5,0.5)"><path class="background" aria-hidden="true" d="M0,0h0v0h0Z" pointer-events="none"/><g><g class="mark-rule role-axis-tick" pointer-events="none"><line transform="translate(0,25)" x2="-5" y2="0" stroke="#888" stroke-width="1" opacity="1"/><line transform="translate(0,75)" x2="-5" y2="0" stroke="#888" stroke-width="1" opacity="1"/><line transform="translate(0,125)" x2="-5" y2="0" stroke="#888" stroke-width="1" opacity="1"/></g><g class="mark-text role-axis-label" pointer-events="none"><text text-anchor="end" transform="translate(-7,28.5)" font-family="sans-serif" font-size="13px" fill="#000" opacity="1">Gold</text><text text-anchor="end" transform="translate(-7,78.5)" font-family="sans-serif" font-size="13px" fill="#000" opacity="1">Silver</text><text text-anchor="end" transform="translate(-7,128.5)" font-family="sans-serif" font-size="13px" fill="#000" opacity="1">Bronze</text></g><g class="mark-rule role-axis-domain" pointer-events="none"><line transform="translate(0,0)" x2="0" y2="150" stroke="#888" stroke-width="1" opacity="1"/></g></g><path class="foreground" aria-hidden="true" d="" pointer-events="none" display="none"/></g></g><g class="mark-rect role-mark concat_0_concat_2_marks" role="graphics-object" aria-roledescription="rect mark container"><path aria-label="count: 24; type: Gold; Trophy: Gold; Count: 24" role="graphics-symbol" aria-roledescription="bar" d="M0,2.5h9.230769230769232v45h-9.230769230769232Z" fill="#FFD700" stroke="black" stroke-width="1"/><path aria-label="count: 132; type: Silver; Trophy: Silver; Count: 132" role="graphics-symbol" aria-roledescription="bar" d="M0,52.5h50.76923076923077v45h-50.76923076923077Z" fill="#C0C0C0" stroke="black" stroke-width="1"/><path aria-label="count: 616; type: Bronze; Trophy: Bronze; Count: 616" role="graphics-symbol" aria-roledescription="bar" d="M0,102.5h236.92307692307693v45h-236.92307692307693Z" fill="#CD7F32" stroke="black" stroke-width="1"/></g><g class="mark-group role-title"><g transform="translate(125,-41)"><path class="background" aria-hidden="true" d="M0,0h0v0h0Z" pointer-events="none"/><g><g class="mark-text role-title-text" role="graphics-symbol" aria-roledescription="title" aria-label="Title text 'PSN Trophies'" pointer-events="none"><text text-anchor="middle" transform="translate(0,16)" font-family="sans-serif" font-size="20px" font-weight="bold" fill="#000" opacity="1">PSN Trophies</text></g><g class="mark-text role-title-subtitle" role="graphics-symbol" aria-roledescription="subtitle" aria-label="Subtitle text 'Total: 772'" pointer-events="none"><text text-anchor="middle" transform="translate(0,34)" font-family="sans-serif" font-size="14px" fill="#000" opacity="1">Total: 772</text></g></g><path class="foreground" aria-hidden="true" d="" pointer-events="none" display="none"/></g></g></g><path class="foreground" aria-hidden="true" d="" display="none"/></g></g><g class="mark-group role-title"><g transform="translate(135.905029296875,-56)"><path class="background" aria-hidden="true" d="M0,0h0v0h0Z" pointer-events="none"/><g><g class="mark-text role-title-text" role="graphics-symbol" aria-roledescription="title" aria-label="Title text 'Player Stats'" pointer-events="none"><text text-anchor="middle" transform="translate(0,24)" font-family="sans-serif" font-size="30px" font-weight="bold" fill="#000" opacity="1">Player Stats</text></g></g><path class="foreground" aria-hidden="true" d="" pointer-events="none" display="none"/></g></g></g><path class="foreground" aria-hidden="true" d="" display="none"/></g></g><g class="mark-group role-scope concat_1_group" role="graphics-object" aria-roledescription="group mark container"><g transform="translate(340,0)"><path class="background" aria-hidden="true" d="M0,0h700v400h-700Z"/><g><g class="mark-arc role-mark concat_1_marks" role="graphics-object" aria-roledescription="arc mark container"><path aria-label="playtime_percentage: 45.08; name: Skyrim; Game: Skyrim; Time (Hrs): 845.3; Playtime (%): 45.08" role="graphics-symbol" aria-roledescription="arc mark" transform="translate(350,200)" d="M-178.619,-89.974A200,200,0,0,0,142.858,139.97L0,0Z" fill="#00008B" stroke="black" stroke-width="1"/><path aria-label="playtime_percentage: 9.19; name: Batman: Arkham Knight; Game: Batman: Arkham Knight; Time (Hrs): 172.2; Playtime (%): 9.19" role="graphics-symbol" aria-roledescription="arc mark" transform="translate(350,200)" d="M109.193,-167.562A200,200,0,0,0,0,-200L0,0Z" fill="#FF4500" stroke="black" stroke-width="1"/><path aria-label="playtime_percentage: 8.86; name: Spider-Man; Game: Spider-Man; Time (Hrs): 166.1; Playtime (%): 8.86" role="graphics-symbol" aria-roledescription="arc mark" transform="translate(350,200)" d="M-104.089,-170.779A200,200,0,0,0,-178.619,-89.974L0,0Z" fill="#32CD32" stroke="black" stroke-width="1"/><path aria-label="playtime_percentage: 8.71; name: Harvest Moon: AWL; Game: Harvest Moon: AWL; Time (Hrs): 163.4; Playtime (%): 8.71" role="graphics-symbol" aria-roledescription="arc mark" transform="translate(350,200)" d="M179.68,87.835A200,200,0,0,0,199.141,-18.513L0,0Z" fill="#C2185B" stroke="black" stroke-width="1"/><path aria-label="playtime_percentage: 8.61; name: God of War; Game: God of War; Time (Hrs): 161.5; Playtime (%): 8.61" role="graphics-symbol" aria-roledescription="arc mark" transform="translate(350,200)" d="M199.141,-18.513A200,200,0,0,0,161.158,-118.44L0,0Z" fill="#00CED1" stroke="black" stroke-width="1"/><path aria-label="playtime_percentage: 5.72; name: Cyberpunk 2077; Game: Cyberpunk 2077; Time (Hrs): 107.3; Playtime (%): 5.72" role="graphics-symbol" aria-roledescription="arc mark" transform="translate(350,200)" d="M161.158,-118.44A200,200,0,0,0,109.193,-167.562L0,0Z" fill="#FFD700" stroke="black" stroke-width="1"/><path aria-label="playtime_percentage: 5.1; name: LOTR Online; Game: LOTR Online; Time (Hrs): 95.7; Playtime (%): 5.10" role="graphics-symbol" aria-roledescription="arc mark" transform="translate(350,200)" d="M142.858,139.97A200,200,0,0,0,179.68,87.835L0,0Z" fill="#7B1FA2" stroke="black" stroke-width="1"/><path aria-label="playtime_percentage: 3.53; name: Telltale: Batman; Game: Telltale: Batman; Time (Hrs): 66.2; Playtime (%): 3.53" role="graphics-symbol" aria-roledescription="arc mark" transform="translate(350,200)" d="M-31.79,-197.457A200,200,0,0,0,-74.456,-185.624L0,0Z" fill="#2E8B57" stroke="black" stroke-width="1"/><path aria-label="playtime_percentage: 2.64; name: Stardew Valley; Game: Stardew Valley; Time (Hrs): 49.5; Playtime (%): 2.64" role="graphics-symbol" aria-roledescription="arc mark" transform="translate(350,200)" d="M-74.456,-185.624A200,200,0,0,0,-104.089,-170.779L0,0Z" fill="#FF8C00" stroke="black" stroke-width="1"/><path aria-label="playtime_percentage: 2.54; name: Telltale: Game of Thrones; Game: Telltale: Game of Thrones; Time (Hrs): 47.7; Playtime (%): 2.54" role="graphics-symbol" aria-roledescription="arc mark" transform="translate(350,200)" d="M0,-200A200,200,0,0,0,-31.79,-197.457L0,0Z" fill="#4682B4" stroke="black" stroke-width="1"/></g><g class="mark-group role-legend" role="graphics-symbol" aria-roledescription="legend" aria-label="Symbol legend for fill color with 10 values: Skyrim, Batman: Arkham Knight, Spider-Man, Harvest Moon: AWL, God of War, ending with Telltale: Game of Thrones"><g transform="translate(0,418)"><path class="background" aria-hidden="true" d="M0,0h990v187h-990Z" pointer-events="none"/><g><g class="mark-group role-legend-entry"><g transform="translate(75,75)"><path class="background" aria-hidden="true" d="M0,0h0v0h0Z" pointer-events="none"/><g><g class="mark-group role-scope" role="graphics-object" aria-roledescription="group mark container"><g transform="translate(0,0.25)"><path class="background" aria-hidden="true" d="M0,0h89.3837890625v12.5h-89.3837890625Z" pointer-events="none" opacity="1"/><g><g class="mark-symbol role-legend-symbol" pointer-events="none"><path transform="translate(6,6)" d="M5,0A5,5,0,1,1,-5,0A5,5,0,1,1,5,0" fill="#00008B" stroke="black" stroke-width="1.5" opacity="1"/></g><g class="mark-text role-legend-label" pointer-events="none"><text text-anchor="start" transform="translate(16,9)" font-family="sans-serif" font-size="10px" fill="#000" opacity="1">Skyrim</text></g></g><path class="foreground" aria-hidden="true" d="" pointer-events="none" display="none"/></g><g transform="translate(166,0.25)"><path class="background" aria-hidden="true" d="M0,0h121.0537109375v12.5h-121.0537109375Z" pointer-events="none" opacity="1"/><g><g class="mark-symbol role-legend-symbol" pointer-events="none"><path transform="translate(6,6)" d="M5,0A5,5,0,1,1,-5,0A5,5,0,1,1,5,0" fill="#FF4500" stroke="black" stroke-width="1.5" opacity="1"/></g><g class="mark-text role-legend-label" pointer-events="none"><text text-anchor="start" transform="translate(16,9)" font-family="sans-serif" font-size="10px" fill="#000" opacity="1">Batman: Arkham Knight</text></g></g><path class="foreground" aria-hidden="true" d="" pointer-events="none" display="none"/></g><g transform="translate(364,0.25)"><path class="background" aria-hidden="true" d="M0,0h87.1474609375v12.5h-87.1474609375Z" pointer-events="none" opacity="1"/><g><g class="mark-symbol role-legend-symbol" pointer-events="none"><path transform="translate(6,6)" d="M5,0A5,5,0,1,1,-5,0A5,5,0,1,1,5,0" fill="#32CD32" stroke="black" stroke-width="1.5" opacity="1"/></g><g class="mark-text role-legend-label" pointer-events="none"><text text-anchor="start" transform="translate(16,9)" font-family="sans-serif" font-size="10px" fill="#000" opacity="1">Spider-Man</text></g></g><path class="foreground" aria-hidden="true" d="" pointer-events="none" display="none"/></g><g transform="translate(528,0.25)"><path class="background" aria-hidden="true" d="M0,0h104.5498046875v12.5h-104.5498046875Z" pointer-events="none" opacity="1"/><g><g class="mark-symbol role-legend-symbol" pointer-events="none"><path transform="translate(6,6)" d="M5,0A5,5,0,1,1,-5,0A5,5,0,1,1,5,0" fill="#C2185B" stroke="black" stroke-width="1.5" opacity="1"/></g><g class="mark-text role-legend-label" pointer-events="none"><text text-anchor="start" transform="translate(16,9)" font-family="sans-serif" font-size="10px" fill="#000" opacity="1">Harvest Moon: AWL</text></g></g><path class="foreground" aria-hidden="true" d="" pointer-events="none" display="none"/></g><g transform="translate(709,0.25)"><path class="background" aria-hidden="true" d="M0,0h130.31640625v12.5h-130.31640625Z" pointer-events="none" opacity="1"/><g><g class="mark-symbol role-legend-symbol" pointer-events="none"><path transform="translate(6,6)" d="M5,0A5,5,0,1,1,-5,0A5,5,0,1,1,5,0" fill="#00CED1" stroke="black" stroke-width="1.5" opacity="1"/></g><g class="mark-text role-legend-label" pointer-events="none"><text text-anchor="start" transform="translate(16,9)" font-family="sans-serif" font-size="10px" fill="#000" opacity="1">God of War</text></g></g><path class="foreground" aria-hidden="true" d="" pointer-events="none" display="none"/></g><g transform="translate(0,24)"><path class="background" aria-hidden="true" d="M0,0h89.3837890625v12.5h-89.3837890625Z" pointer-events="none" opacity="1"/><g><g class="mark-symbol role-legend-symbol" pointer-events="none"><path transform="translate(6,6)" d="M5,0A5,5,0,1,1,-5,0A5,5,0,1,1,5,0" fill="#FFD700" stroke="black" stroke-width="1.5" opacity="1"/></g><g class="mark-text role-legend-label" pointer-events="none"><text text-anchor="start" transform="translate(16,9)" font-family="sans-serif" font-size="10px" fill="#000" opacity="1">Cyberpunk 2077</text></g></g><path class="foreground" aria-hidden="true" d="" pointer-events="none" display="none"/></g><g transform="translate(166,24)"><path class="background" aria-hidden="true" d="M0,0h121.0537109375v12.5h-121.0537109375Z" pointer-events="none" opacity="1"/><g><g class="mark-symbol role-legend-symbol" pointer-events="none"><path transform="translate(6,6)" d="M5,0A5,5,0,1,1,-5,0A5,5,0,1,1,5,0" fill="#7B1FA2" stroke="black" stroke-width="1.5" opacity="1"/></g><g class="mark-text role-legend-label" pointer-events="none"><text text-anchor="start" transform="translate(16,9)" font-family="sans-serif" font-size="10px" fill="#000" opacity="1">LOTR Online</text></g></g><path class="foreground" aria-hidden="true" d="" pointer-events="none" display="none"/></g><g transform="translate(364,24)"><path class="background" aria-hidden="true" d="M0,0h87.1474609375v12.5h-87.1474609375Z" pointer-events="none" opacity="1"/><g><g class="mark-symbol role-legend-symbol" pointer-events="none"><path transform="translate(6,6)" d="M5,0A5,5,0,1,1,-5,0A5,5,0,1,1,5,0" fill="#2E8B57" stroke="black" stroke-width="1.5" opacity="1"/></g><g class="mark-text role-legend-label" pointer-events="none"><text text-anchor="start" transform="translate(16,9)" font-family="sans-serif" font-size="10px" fill="#000" opacity="1">Telltale: Batman</text></g></g><path class="foreground" aria-hidden="true" d="" pointer-events="none" display="none"/></g><g transform="translate(528,24)"><path class="background" aria-hidden="true" d="M0,0h104.5498046875v12.5h-104.5498046875Z" pointer-events="none" opacity="1"/><g><g class="mark-symbol role-legend-symbol" pointer-events="none"><path transform="translate(6,6)" d="M5,0A5,5,0,1,1,-5,0A5,5,0,1,1,5,0" fill="#FF8C00" stroke="black" stroke-width="1.5" opacity="1"/></g><g class="mark-text role-legend-label" pointer-events="none"><text text-anchor="start" transform="translate(16,9)" font-family="sans-serif" font-size="10px" fill="#000" opacity="1">Stardew Valley</text></g></g><path class="foreground" aria-hidden="true" d="" pointer-events="none" display="none"/></g><g transform="translate(709,24)"><path class="background" aria-hidden="true" d="M0,0h130.31640625v12.5h-130.31640625Z" pointer-events="none" opacity="1"/><g><g class="mark-symbol role-legend-symbol" pointer-events="none"><path transform="translate(6,6)" d="M5,0A5,5,0,1,1,-5,0A5,5,0,1,1,5,0" fill="#4682B4" stroke="black" stroke-width="1.5" opacity="1"/></g><g class="mark-text role-legend-label" pointer-events="none"><text text-anchor="start" transform="translate(16,9)" font-family="sans-serif" font-size="10px" fill="#000" opacity="1">Telltale: Game of Thrones</text></g></g><path class="foreground" aria-hidden="true" d="" pointer-events="none" display="none"/></g></g></g><path class="foreground" aria-hidden="true" d="" pointer-events="none" display="none"/></g></g></g><path class="foreground" aria-hidden="true" d="" pointer-events="none" display="none"/></g></g><g class="mark-group role-title"><g transform="translate(350,-50)"><path class="background" aria-hidden="true" d="M0,0h0v0h0Z" pointer-events="none"/><g><g class="mark-text role-title-text" role="graphics-symbol" aria-roledescription="title" aria-label="Title text 'Top Games'" pointer-events="none"><text text-anchor="middle" transform="translate(0,21)" font-family="sans-serif" font-size="26px" font-weight="bold" fill="#000" opacity="1">Top Games</text></g><g class="mark-text role-title-subtitle" role="graphics-symbol" aria-roledescription="subtitle" aria-label="Subtitle text 'Total Playtime: 2444.1 Hrs'" pointer-events="none"><text text-anchor="middle" transform="translate(0,42)" font-family="sans-serif" font-size="16px" fill="#000" opacity="1">Total Playtime: 2444.1 Hrs</text></g></g><path class="foreground" aria-hidden="true" d="" pointer-events="none" display="none"/></g></g></g><path class="foreground" aria-hidden="true" d="" display="none"/></g></g><g class="mark-group role-title"><g transform="translate(640.905029296875,-100)"><path class="background" aria-hidden="true" d="M0,0h0v0h0Z" pointer-events="none"/><g><g class="mark-text role-title-text" role="graphics-symbol" aria-roledescription="title" aria-label="Title text 'Dipto9999's Games Dashboard'" pointer-events="none"><text text-anchor="middle" transform="translate(0,32)" font-family="sans-serif" font-size="40px" font-weight="bold" fill="#000" opacity="1">Dipto9999's Games Dashboard</text></g></g><path class="foreground" aria-hidden="true" d="" pointer-events="none" display="none"/></g></g></g><path class="foreground" aria-hidden="true" d="" display="none"/></g></g></g></svg>