<svg xmlns="http://www.w3.org/2000/svg" xmlns:xlink="http://www.w3.org/1999/xlink" version="1.1" class="marks" width="1887" height="707" viewBox="0 0 1887 707"><rect width="1887" height="707" fill="white"/><g fill="none" stroke-miterlimit="10" transform="translate(299,102)"><g class="mark-group role-frame root" role="graphics-object" aria-roledescription="group mark container"><g transform="translate(0,0)"><path class="background" aria-hidden="true" d="M0,0h0v0h0Z"/><g><g class="mark-group role-scope concat_0_group" role="graphics-object" aria-roledescription="group mark container"><g transform="translate(0,0)"><path class="background" aria-hidden="true" d="M0,0h0v0h0Z"/><g><g class="mark-group role-scope concat_0_concat_0_group" role="graphics-object" aria-roledescription="group mark container"><g transform="translate(0,0)"><path class="background" aria-hidden="true" d="M0,0h300v150h-300Z" stroke="#ddd" stroke-opacity="0" stroke-width="1.5"/><g><g class="mark-text role-mark concat_0_concat_0_marks" role="graphics-object" aria-roledescription="text mark container"><text aria-label="Metric: Trophy Level; Value: 200" role="graphics-symbol" aria-roledescription="text mark" text-anchor="middle" transform="translate(150,74)" font-family="sans-serif" font-size="80px" font-weight="bold" fill="#141331">200</text></g><g class="mark-group role-title"><g transform="translate(150,-24)"><path class="background" aria-hidden="true" d="M0,0h0v0h0Z" pointer-events="none"/><g><g class="mark-text role-title-text" role="graphics-symbol" aria-roledescription="title" aria-label="Title text 'Trophy Level'" pointer-events="none"><text text-anchor="middle" transform="translate(0,16)" font-family="sans-serif" font-size="20px" font-weight="bold" fill="#000" opacity="1">Trophy Level</text></g></g><path class="foreground" aria-hidden="true" d="" pointer-events="none" display="none"/></g></g></g><path class="foreground" aria-hidden="true" d="" display="none"/></g></g><g class="mark-group role-scope concat_0_concat_1_group" role="graphics-object" aria-roledescription="group mark container"><g transform="translate(0,194)"><path class="background" aria-hidden="true" d="M0,0h300v150h-300Z" stroke="#ddd" stroke-opacity="0" stroke-width="1.5"/><g><g class="mark-text role-mark concat_0_concat_1_marks" role="graphics-object" aria-roledescription="text mark container"><text aria-label="Metric: Played; Value: 22" role="graphics-symbol" aria-roledescription="text mark" text-anchor="middle" transform="translate(150,74)" font-family="sans-serif" font-size="80px" font-weight="bold" fill="#141331">22</text></g><g class="mark-group role-title"><g transform="translate(150,-24)"><path class="background" aria-hidden="true" d="M0,0h0v0h0Z" pointer-events="none"/><g><g class="mark-text role-title-text" role="graphics-symbol" aria-roledescription="title" aria-label="Title text 'Played'" pointer-events="none"><text text-anchor="middle" transform="translate(0,16)" font-family="sans-serif" font-size="20px" font-weight="bold" fill="#000" opacity="1">Played</text></g></g><path class="foreground" aria-hidden="true" d="" pointer-events="none" display="none"/></g></g></g><path class="foreground" aria-hidden="true" d="" display="none"/></g></g><g class="mark-group role-scope concat_0_concat_2_group" role="graphics-object" aria-roledescription="group mark container"><g transform="translate(0,405)"><path class="background" aria-hidden="true" d="M0,0h250v150h-250Z" stroke="#ddd" stroke-opacity="0" stroke-width="1.5"/><g><g class="mark-group role-axis" aria-hidden="true"><g transform="translate(0.5,150.5)"><path class="background" aria-hidden="true" d="M0,0h0v0h0Z" pointer-events="none"/><g><g class="mark-rule role-axis-grid" pointer-events="none"><line transform="translate(0,0)" x2="0" y2="-150" stroke="#ddd" stroke-width="1" opacity="1"/><line transform="translate(38,0)" x2="0" y2="-150" stroke="#ddd" stroke-width="1" opacity="1"/><line transform="translate(77,0)" x2="0" y2="-150" stroke="#ddd" stroke-width="1" opacity="1"/><line transform="translate(115,0)" x2="0" y2="-150" stroke="#ddd" stroke-width="1" opacity="1"/><line transform="translate(154,0)" x2="0" y2="-150" stroke="#ddd" stroke-width="1" opacity="1"/><line transform="translate(192,0)" x2="0" y2="-150" stroke="#ddd" stroke-width="1" opacity="1"/><line transform="translate(231,0)" x2="0" y2="-150" stroke="#ddd" stroke-width="1" opacity="1"/></g></g><path class="foreground" aria-hidden="true" d="" pointer-events="none" display="none"/></g></g><g class="mark-group role-axis" role="graphics-symbol" aria-roledescription="axis" aria-label="X-axis for a linear scale with values from 0 to 650"><g transform="translate(0.5,150.5)"><path class="background" aria-hidden="true" d="M0,0h0v0h0Z" pointer-events="none"/><g><g class="mark-rule role-axis-tick" pointer-events="none"><line transform="translate(0,0)" x2="0" y2="5" stroke="#888" stroke-width="1" opacity="1"/><line transform="translate(38,0)" x2="0" y2="5" stroke="#888" stroke-width="1" opacity="1"/><line transform="translate(77,0)" x2="0" y2="5" stroke="#888" stroke-width="1" opacity="1"/><line transform="translate(115,0)" x2="0" y2="5" stroke="#888" stroke-width="1" opacity="1"/><line transform="translate(154,0)" x2="0" y2="5" stroke="#888" stroke-width="1" opacity="1"/><line transform="translate(192,0)" x2="0" y2="5" stroke="#888" stroke-width="1" opacity="1"/><line transform="translate(231,0)" x2="0" y2="5" stroke="#888" stroke-width="1" opacity="1"/></g><g class="mark-text role-axis-label" pointer-events="none"><text text-anchor="start" transform="translate(0,16)" font-family="sans-serif" font-size="12px" fill="#000" opacity="1">0</text><text text-anchor="middle" transform="translate(38.46153846153847,16)" font-family="sans-serif" font-size="12px" fill="#000" opacity="1">100</text><text text-anchor="middle" transform="translate(76.92307692307693,16)" font-family="sans-serif" font-size="12px" fill="#000" opacity="1">200</text><text text-anchor="middle" transform="translate(115.38461538461539,16)" font-family="sans-serif" font-size="12px" fill="#000" opacity="1">300</text><text text-anchor="middle" transform="translate(153.84615384615387,16)" font-family="sans-serif" font-size="12px" fill="#000" opacity="1">400</text><text text-anchor="middle" transform="translate(192.30769230769232,16)" font-family="sans-serif" font-size="12px" fill="#000" opacity="1">500</text><text text-anchor="middle" transform="translate(230.76923076923077,16)" font-family="sans-serif" font-size="12px" fill="#000" opacity="1">600</text></g><g class="mark-rule role-axis-domain" pointer-events="none"><line transform="translate(0,0)" x2="250" y2="0" stroke="#888" stroke-width="1" opacity="1"/></g></g><path class="foreground" aria-hidden="true" d="" pointer-events="none" display="none"/></g></g><g class="mark-group role-axis" role="graphics-symbol" aria-roledescription="axis" aria-label="Y-axis for a discrete scale with 3 values: Gold, Silver, Bronze"><g transform="translate(0.5,0.5)"><path class="background" aria-hidden="true" d="M0,0h0v0h0Z" pointer-events="none"/><g><g class="mark-rule role-axis-tick" pointer-events="none"><line transform="translate(0,25)" x2="-5" y2="0" stroke="#888" stroke-width="1" opacity="1"/><line transform="translate(0,75)" x2="-5" y2="0" stroke="#888" stroke-width="1" opacity="1"/><line transform="translate(0,125)" x2="-5" y2="0" stroke="#888" stroke-width="1" opacity="1"/></g><g class="mark-text role-axis-label" pointer-events="none"><text text-anchor="end" transform="translate(-7,28.5)" font-family="sans-serif" font-size="13px" fill="#000" opacity="1">Gold</text><text text-anchor="end" transform="translate(-7,78.5)" font-family="sans-serif" font-size="13px" fill="#000" opacity="1">Silver</text><text text-anchor="end" transform="translate(-7,128.5)" font-family="sans-serif" font-size="13px" fill="#000" opacity="1">Bronze</text></g><g class="mark-rule role-axis-domain" pointer-events="none"><line transform="translate(0,0)" x2="0" y2="150" stroke="#888" stroke-width="1" opacity="1"/></g></g><path class="foreground" aria-hidden="true" d="" pointer-events="none" display="none"/></g></g><g class="mark-rect role-mark concat_0_concat_2_marks" role="graphics-object" aria-roledescription="rect mark container"><path aria-label="count: 24; type: Gold; Trophy: Gold; Count: 24" role="graphics-symbol" aria-roledescription="bar" d="M0,2.5h9.230769230769232v45h-9.230769230769232Z" fill="#FFD700" stroke="black" stroke-width="1"/><path aria-label="count: 132; type: Silver; Trophy: Silver; Count: 132" role="graphics-symbol" aria-roledescription="bar" d="M0,52.5h50.76923076923077v45h-50.76923076923077Z" fill="#C0C0C0" stroke="black" stroke-width="1"/><path aria-label="count: 616; type: Bronze; Trophy: Bronze; Count: 616" role="graphics-symbol" aria-roledescription="bar" d="M0,102.5h236.92307692307693v45h-236.92307692307693Z" fill="#CD7F32" stroke="black" stroke-width="1"/></g><g class="mark-group role-title"><g transform="translate(125,-41)"><path class="background" aria-hidden="true" d="M0,0h0v0h0Z" pointer-events="none"/><g><g class="mark-text role-title-text" role="graphics-symbol" aria-roledescription="title" aria-label="Title text 'Trophies'" pointer-events="none"><text text-anchor="middle" transform="translate(0,16)" font-family="sans-serif" font-size="20px" font-weight="bold" fill="#000" opacity="1">Trophies</text></g><g class="mark-text role-title-subtitle" role="graphics-symbol" aria-roledescription="subtitle" aria-label="Subtitle text 'Total: 772'" pointer-events="none"><text text-anchor="middle" transform="translate(0,34)" font-family="sans-serif" font-size="14px" fill="#000" opacity="1">Total: 772</text></g></g><path class="foreground" aria-hidden="true" d="" pointer-events="none" display="none"/></g></g></g><path class="foreground" aria-hidden="true" d="" display="none"/></g></g><g class="mark-group role-title"><g transform="translate(125.905029296875,-58)"><path class="background" aria-hidden="true" d="M0,0h0v0h0Z" pointer-events="none"/><g><g class="mark-text role-title-text" role="graphics-symbol" aria-roledescription="title" aria-label="Title text 'Player Stats'" pointer-events="none"><text text-anchor="middle" transform="translate(0,24)" font-family="sans-serif" font-size="30px" font-weight="bold" fill="#000" opacity="1">Player Stats</text></g></g><path class="foreground" aria-hidden="true" d="" pointer-events="none" display="none"/></g></g></g><path class="foreground" aria-hidden="true" d="" display="none"/></g></g><g class="mark-group role-scope concat_1_group" role="graphics-object" aria-roledescription="group mark container"><g transform="translate(320,0)"><path class="background" aria-hidden="true" d="M0,0h700v400h-700Z"/><g><g class="mark-arc role-mark concat_1_marks" role="graphics-object" aria-roledescription="arc mark container"><path aria-label="playtime_percentage: 26.89; name: Spider-Man; Game: Spider-Man; Time (Hrs): 166.1; Playtime (%): 26.89" role="graphics-symbol" aria-roledescription="arc mark" transform="translate(350,200)" d="M-66.202,-188.725A200,200,0,0,0,-179.568,88.064L0,0Z" fill="#00008B" stroke="black" stroke-width="1"/><path aria-label="playtime_percentage: 26.15; name: God of War; Game: God of War; Time (Hrs): 161.5; Playtime (%): 26.15" role="graphics-symbol" aria-roledescription="arc mark" transform="translate(350,200)" d="M144.529,138.244A200,200,0,0,0,127.474,-154.111L0,0Z" fill="#32CD32" stroke="black" stroke-width="1"/><path aria-label="playtime_percentage: 20.07; name: Harvest Moon: AWL; Game: Harvest Moon: AWL; Time (Hrs): 123.9; Playtime (%): 20.07" role="graphics-symbol" aria-roledescription="arc mark" transform="translate(350,200)" d="M-115.658,163.166A200,200,0,0,0,120.124,159.907L0,0Z" fill="#00CED1" stroke="black" stroke-width="1"/><path aria-label="playtime_percentage: 5.73; name: 007 First Light; Game: 007 First Light; Time (Hrs): 35.4; Playtime (%): 5.73" role="graphics-symbol" aria-roledescription="arc mark" transform="translate(350,200)" d="M70.453,-187.18A200,200,0,0,0,0,-200L0,0Z" fill="#A8D7E7" stroke="black" stroke-width="1"/><path aria-label="playtime_percentage: 5.66; name: Injustice 2; Game: Injustice 2; Time (Hrs): 35.0; Playtime (%): 5.66" role="graphics-symbol" aria-roledescription="arc mark" transform="translate(350,200)" d="M-165.228,112.692A200,200,0,0,0,-115.658,163.166L0,0Z" fill="#808080" stroke="black" stroke-width="1"/><path aria-label="playtime_percentage: 5.27; name: Batman: Arkham Knight; Game: Batman: Arkham Knight; Time (Hrs): 32.6; Playtime (%): 5.27" role="graphics-symbol" aria-roledescription="arc mark" transform="translate(350,200)" d="M127.474,-154.111A200,200,0,0,0,70.453,-187.18L0,0Z" fill="#FF4500" stroke="black" stroke-width="1"/><path aria-label="playtime_percentage: 2.94; name: inFAMOUS Second Son; Game: inFAMOUS Second Son; Time (Hrs): 18.2; Playtime (%): 2.94" role="graphics-symbol" aria-roledescription="arc mark" transform="translate(350,200)" d="M0,-200A200,200,0,0,0,-36.732,-196.598L0,0Z" fill="#0000FF" stroke="black" stroke-width="1"/><path aria-label="playtime_percentage: 2.6; name: God of War Ragnarok; Game: God of War Ragnarok; Time (Hrs): 16.0; Playtime (%): 2.60" role="graphics-symbol" aria-roledescription="arc mark" transform="translate(350,200)" d="M120.124,159.907A200,200,0,0,0,144.529,138.244L0,0Z" fill="#3D3A38" stroke="black" stroke-width="1"/><path aria-label="playtime_percentage: 2.43; name: Spider-Man: Miles Morales; Game: Spider-Man: Miles Morales; Time (Hrs): 15.0; Playtime (%): 2.43" role="graphics-symbol" aria-roledescription="arc mark" transform="translate(350,200)" d="M-36.732,-196.598A200,200,0,0,0,-66.202,-188.725L0,0Z" fill="#800080" stroke="black" stroke-width="1"/><path aria-label="playtime_percentage: 2.27; name: Overcooked; Game: Overcooked; Time (Hrs): 14.0; Playtime (%): 2.27" role="graphics-symbol" aria-roledescription="arc mark" transform="translate(350,200)" d="M-179.568,88.064A200,200,0,0,0,-165.228,112.692L0,0Z" fill="#FFA500" stroke="black" stroke-width="1"/></g><g class="mark-group role-legend" role="graphics-symbol" aria-roledescription="legend" aria-label="Symbol legend for fill color with 10 values: Spider-Man, God of War, Harvest Moon: AWL, 007 First Light, Injustice 2, ending with Overcooked"><g transform="translate(0,418)"><path class="background" aria-hidden="true" d="M0,0h1018v187h-1018Z" pointer-events="none"/><g><g class="mark-group role-legend-entry"><g transform="translate(75,75)"><path class="background" aria-hidden="true" d="M0,0h0v0h0Z" pointer-events="none"/><g><g class="mark-group role-scope" role="graphics-object" aria-roledescription="group mark container"><g transform="translate(0,0.25)"><path class="background" aria-hidden="true" d="M0,0h121.0537109375v12.5h-121.0537109375Z" pointer-events="none" opacity="1"/><g><g class="mark-symbol role-legend-symbol" pointer-events="none"><path transform="translate(6,6)" d="M5,0A5,5,0,1,1,-5,0A5,5,0,1,1,5,0" fill="#00008B" stroke="black" stroke-width="1.5" opacity="1"/></g><g class="mark-text role-legend-label" pointer-events="none"><text text-anchor="start" transform="translate(16,9)" font-family="sans-serif" font-size="10px" fill="#000" opacity="1">Spider-Man</text></g></g><path class="foreground" aria-hidden="true" d="" pointer-events="none" display="none"/></g><g transform="translate(198,0.25)"><path class="background" aria-hidden="true" d="M0,0h123.275390625v12.5h-123.275390625Z" pointer-events="none" opacity="1"/><g><g class="mark-symbol role-legend-symbol" pointer-events="none"><path transform="translate(6,6)" d="M5,0A5,5,0,1,1,-5,0A5,5,0,1,1,5,0" fill="#32CD32" stroke="black" stroke-width="1.5" opacity="1"/></g><g class="mark-text role-legend-label" pointer-events="none"><text text-anchor="start" transform="translate(16,9)" font-family="sans-serif" font-size="10px" fill="#000" opacity="1">God of War</text></g></g><path class="foreground" aria-hidden="true" d="" pointer-events="none" display="none"/></g><g transform="translate(398,0.25)"><path class="background" aria-hidden="true" d="M0,0h112.89453125v12.5h-112.89453125Z" pointer-events="none" opacity="1"/><g><g class="mark-symbol role-legend-symbol" pointer-events="none"><path transform="translate(6,6)" d="M5,0A5,5,0,1,1,-5,0A5,5,0,1,1,5,0" fill="#00CED1" stroke="black" stroke-width="1.5" opacity="1"/></g><g class="mark-text role-legend-label" pointer-events="none"><text text-anchor="start" transform="translate(16,9)" font-family="sans-serif" font-size="10px" fill="#000" opacity="1">Harvest Moon: AWL</text></g></g><path class="foreground" aria-hidden="true" d="" pointer-events="none" display="none"/></g><g transform="translate(587,0.25)"><path class="background" aria-hidden="true" d="M0,0h134.92578125v12.5h-134.92578125Z" pointer-events="none" opacity="1"/><g><g class="mark-symbol role-legend-symbol" pointer-events="none"><path transform="translate(6,6)" d="M5,0A5,5,0,1,1,-5,0A5,5,0,1,1,5,0" fill="#A8D7E7" stroke="black" stroke-width="1.5" opacity="1"/></g><g class="mark-text role-legend-label" pointer-events="none"><text text-anchor="start" transform="translate(16,9)" font-family="sans-serif" font-size="10px" fill="#000" opacity="1">007 First Light</text></g></g><path class="foreground" aria-hidden="true" d="" pointer-events="none" display="none"/></g><g transform="translate(798,0.25)"><path class="background" aria-hidden="true" d="M0,0h69.916015625v12.5h-69.916015625Z" pointer-events="none" opacity="1"/><g><g class="mark-symbol role-legend-symbol" pointer-events="none"><path transform="translate(6,6)" d="M5,0A5,5,0,1,1,-5,0A5,5,0,1,1,5,0" fill="#808080" stroke="black" stroke-width="1.5" opacity="1"/></g><g class="mark-text role-legend-label" pointer-events="none"><text text-anchor="start" transform="translate(16,9)" font-family="sans-serif" font-size="10px" fill="#000" opacity="1">Injustice 2</text></g></g><path class="foreground" aria-hidden="true" d="" pointer-events="none" display="none"/></g><g transform="translate(0,24)"><path class="background" aria-hidden="true" d="M0,0h121.0537109375v12.5h-121.0537109375Z" pointer-events="none" opacity="1"/><g><g class="mark-symbol role-legend-symbol" pointer-events="none"><path transform="translate(6,6)" d="M5,0A5,5,0,1,1,-5,0A5,5,0,1,1,5,0" fill="#FF4500" stroke="black" stroke-width="1.5" opacity="1"/></g><g class="mark-text role-legend-label" pointer-events="none"><text text-anchor="start" transform="translate(16,9)" font-family="sans-serif" font-size="10px" fill="#000" opacity="1">Batman: Arkham Knight</text></g></g><path class="foreground" aria-hidden="true" d="" pointer-events="none" display="none"/></g><g transform="translate(198,24)"><path class="background" aria-hidden="true" d="M0,0h123.275390625v12.5h-123.275390625Z" pointer-events="none" opacity="1"/><g><g class="mark-symbol role-legend-symbol" pointer-events="none"><path transform="translate(6,6)" d="M5,0A5,5,0,1,1,-5,0A5,5,0,1,1,5,0" fill="#0000FF" stroke="black" stroke-width="1.5" opacity="1"/></g><g class="mark-text role-legend-label" pointer-events="none"><text text-anchor="start" transform="translate(16,9)" font-family="sans-serif" font-size="10px" fill="#000" opacity="1">inFAMOUS Second Son</text></g></g><path class="foreground" aria-hidden="true" d="" pointer-events="none" display="none"/></g><g transform="translate(398,24)"><path class="background" aria-hidden="true" d="M0,0h112.89453125v12.5h-112.89453125Z" pointer-events="none" opacity="1"/><g><g class="mark-symbol role-legend-symbol" pointer-events="none"><path transform="translate(6,6)" d="M5,0A5,5,0,1,1,-5,0A5,5,0,1,1,5,0" fill="#3D3A38" stroke="black" stroke-width="1.5" opacity="1"/></g><g class="mark-text role-legend-label" pointer-events="none"><text text-anchor="start" transform="translate(16,9)" font-family="sans-serif" font-size="10px" fill="#000" opacity="1">God of War Ragnarok</text></g></g><path class="foreground" aria-hidden="true" d="" pointer-events="none" display="none"/></g><g transform="translate(587,24)"><path class="background" aria-hidden="true" d="M0,0h134.92578125v12.5h-134.92578125Z" pointer-events="none" opacity="1"/><g><g class="mark-symbol role-legend-symbol" pointer-events="none"><path transform="translate(6,6)" d="M5,0A5,5,0,1,1,-5,0A5,5,0,1,1,5,0" fill="#800080" stroke="black" stroke-width="1.5" opacity="1"/></g><g class="mark-text role-legend-label" pointer-events="none"><text text-anchor="start" transform="translate(16,9)" font-family="sans-serif" font-size="10px" fill="#000" opacity="1">Spider-Man: Miles Morales</text></g></g><path class="foreground" aria-hidden="true" d="" pointer-events="none" display="none"/></g><g transform="translate(798,24)"><path class="background" aria-hidden="true" d="M0,0h69.916015625v12.5h-69.916015625Z" pointer-events="none" opacity="1"/><g><g class="mark-symbol role-legend-symbol" pointer-events="none"><path transform="translate(6,6)" d="M5,0A5,5,0,1,1,-5,0A5,5,0,1,1,5,0" fill="#FFA500" stroke="black" stroke-width="1.5" opacity="1"/></g><g class="mark-text role-legend-label" pointer-events="none"><text text-anchor="start" transform="translate(16,9)" font-family="sans-serif" font-size="10px" fill="#000" opacity="1">Overcooked</text></g></g><path class="foreground" aria-hidden="true" d="" pointer-events="none" display="none"/></g></g></g><path class="foreground" aria-hidden="true" d="" pointer-events="none" display="none"/></g></g></g><path class="foreground" aria-hidden="true" d="" pointer-events="none" display="none"/></g></g><g class="mark-group role-title"><g transform="translate(350,-44)"><path class="background" aria-hidden="true" d="M0,0h0v0h0Z" pointer-events="none"/><g><g class="mark-text role-title-text" role="graphics-symbol" aria-roledescription="title" aria-label="Title text 'Top Games'" pointer-events="none"><text text-anchor="middle" transform="translate(0,16)" font-family="sans-serif" font-size="20px" font-weight="bold" fill="#000" opacity="1">Top Games</text></g><g class="mark-text role-title-subtitle" role="graphics-symbol" aria-roledescription="subtitle" aria-label="Subtitle text 'Total Playtime: 617.6 Hrs'" pointer-events="none"><text text-anchor="middle" transform="translate(0,36)" font-family="sans-serif" font-size="16px" fill="#000" opacity="1">Total Playtime: 617.6 Hrs</text></g></g><path class="foreground" aria-hidden="true" d="" pointer-events="none" display="none"/></g></g></g><path class="foreground" aria-hidden="true" d="" display="none"/></g></g><g class="mark-group role-title"><g transform="translate(644.905029296875,-102)"><path class="background" aria-hidden="true" d="M0,0h0v0h0Z" pointer-events="none"/><g><g class="mark-text role-title-text" role="graphics-symbol" aria-roledescription="title" aria-label="Title text 'Dipto_9999's PSN Dashboard'" pointer-events="none"><text text-anchor="middle" transform="translate(0,32)" font-family="sans-serif" font-size="40px" font-weight="bold" fill="#000" opacity="1">Dipto_9999's PSN Dashboard</text></g></g><path class="foreground" aria-hidden="true" d="" pointer-events="none" display="none"/></g></g></g><path class="foreground" aria-hidden="true" d="" display="none"/></g></g></g></svg>